<svg xmlns="http://www.w3.org/2000/svg" xmlns:xlink="http://www.w3.org/1999/xlink" viewBox="0 0 645 260" width="645" height="260" preserveAspectRatio="xMidYMid meet" style="width: 100%; height: 100%; transform: translate3d(0px, 0px, 0px); content-visibility: visible;"><defs><clipPath id="__lottie_element_156"><rect width="645" height="260" x="0" y="0"></rect></clipPath></defs><g clip-path="url(#__lottie_element_156)"><g style="display: none;" transform="matrix(2.550814151763916,-0.5236068964004517,0.5236068964004517,2.550814151763916,746.1814575195312,643.3944702148438)" opacity="1"><g opacity="1" transform="matrix(1.090000033378601,0,0,1.090000033378601,0,0)"><path fill="rgb(112,255,129)" fill-opacity="1" d=" M-209.5,-105.25 C-210.25,-105.375 -210.31300354003906,-103.81199645996094 -210.68800354003906,-103.81199645996094 C-211.06300354003906,-103.81199645996094 -211.68699645996094,-103.18699645996094 -211.375,-102.81199645996094 C-211.06300354003906,-102.43699645996094 -210.25,-102 -209.81199645996094,-102.375 C-209.37399291992188,-102.75 -208.81199645996094,-102.3759994506836 -208.5,-102.93800354003906 C-208.18800354003906,-103.5 -208.75,-103.81300354003906 -208.68800354003906,-104.375 C-208.62600708007812,-104.93699645996094 -208.75,-105.125 -209.5,-105.25z"></path></g></g><g style="display: none;" transform="matrix(2.6040000915527344,0,0,2.6040000915527344,850.3603515625,747.5197143554688)" opacity="1"><g opacity="1" transform="matrix(1.090000033378601,0,0,1.090000033378601,0,0)"><path fill="rgb(112,255,129)" fill-opacity="1" d=" M-209.5919952392578,-104.57599639892578 C-210.3419952392578,-104.70099639892578 -210.81500244140625,-104.45600128173828 -211.0570068359375,-104.16899871826172 C-211.70799255371094,-103.39700317382812 -211.68699645996094,-103.18699645996094 -211.375,-102.81199645996094 C-211.06300354003906,-102.43699645996094 -210.78399658203125,-102.06600189208984 -210.38099670410156,-102.2300033569336 C-209.97799682617188,-102.39399719238281 -209.2220001220703,-102.177001953125 -208.91000366210938,-102.73899841308594 C-208.59800720214844,-103.3010025024414 -208.89500427246094,-103.36399841308594 -208.83299255371094,-103.9260025024414 C-208.8159942626953,-104.24299621582031 -208.8419952392578,-104.45099639892578 -209.5919952392578,-104.57599639892578z"></path></g></g><g style="display: none;" transform="matrix(0.8820000290870667,0,0,0.8820000290870667,-44.739498138427734,412.34307861328125)" opacity="1"><g opacity="1" transform="matrix(1,0,0,1,0,0)"><path fill="rgb(255,255,255)" fill-opacity="1" d=" M102.25,-14.5 C101.25,-15 99.5,-11.75 98.5,-10.5 C97.5,-9.25 96,-3.25 96,0.25 C96,3.75 99.25,3.25 101.5,3.5 C103.75,3.75 104.5,8.5 103.75,11 C103,13.5 107.75,10.75 110,7 C110.9280014038086,5.453999996185303 108.5,3.5 108.75,-3 C108.81999969482422,-4.818999767303467 108.25,-6.25 106,-5.25 C103.75,-4.25 102,-1 102.5,-3.25 C103,-5.5 107,-7 106.25,-9.5 C105.5,-12 103.25,-14 102.25,-14.5z"></path></g></g><g style="display: none;" transform="matrix(-0.08886171132326126,-0.5933831930160522,0.5933831930160522,-0.08886171132326126,216.54690551757812,511.79681396484375)" opacity="1"><g opacity="1" transform="matrix(1,0,0,1,0,0)"><path fill="rgb(255,255,255)" fill-opacity="1" d=" M132,-114 C129.75,-116.25 126,-110.5 124,-107.75 C122,-105 123,-103 120,-95.5 C117,-88 119.25,-86 123,-86.25 C126.75,-86.5 132.25,-92.5 132.5,-96.75 C132.75,-101 134.25,-111.75 132,-114z"></path></g></g><g style="display: none;" transform="matrix(0.10418891161680222,-0.5908846855163574,0.5908846855163574,0.10418891161680222,110.65092468261719,528.8961791992188)" opacity="1"><g opacity="1" transform="matrix(1,0,0,1,0,0)"><path fill="rgb(112,255,129)" fill-opacity="1" d=" M39,-66.5 C28.351999282836914,-72.23300170898438 31.5,-64.5 32,-61.5 C32.5,-58.5 32.5,-51.5 35.5,-51.5 C38.5,-51.5 45.5,-51.5 47,-53 C48.5,-54.5 45.5,-63 39,-66.5z"></path></g></g><g style="display: none;" transform="matrix(0.35731664299964905,-0.04387296363711357,0.04387296363711357,0.35731664299964905,224.63182067871094,492.7707824707031)" opacity="1"><g opacity="1" transform="matrix(1,0,0,1,0,0)"><path fill="rgb(112,255,129)" fill-opacity="1" d=" M39,-66.5 C28.351999282836914,-72.23300170898438 31.5,-64.5 32,-61.5 C32.5,-58.5 32.5,-51.5 35.5,-51.5 C38.5,-51.5 45.5,-51.5 47,-53 C48.5,-54.5 45.5,-63 39,-66.5z"></path></g></g><g style="display: none;" transform="matrix(0.6000000238418579,0,0,0.6000000238418579,-104.41680908203125,517.2332153320312)" opacity="1"><g opacity="1" transform="matrix(1,0,0,1,226.0279998779297,-88.72200012207031)"><path fill="rgb(112,255,129)" fill-opacity="1" d=" M0,-9.050000190734863 C4.99469518661499,-9.050000190734863 9.050000190734863,-4.99469518661499 9.050000190734863,0 C9.050000190734863,4.99469518661499 4.99469518661499,9.050000190734863 0,9.050000190734863 C-4.99469518661499,9.050000190734863 -9.050000190734863,4.99469518661499 -9.050000190734863,0 C-9.050000190734863,-4.99469518661499 -4.99469518661499,-9.050000190734863 0,-9.050000190734863z"></path></g></g><g style="display: none;" transform="matrix(-0.15529143810272217,-0.5795555114746094,0.5795555114746094,-0.15529143810272217,70.15481567382812,345.464111328125)" opacity="1"><g opacity="1" transform="matrix(1,0,0,1,-209.75,-80.25)"><path fill="rgb(255,255,255)" fill-opacity="1" d=" M4.621204766542977e-16,-7.546999931335449 C4.621204766542977e-16,-7.546999931335449 2.2177138328552246,-3.0524210929870605 2.2177138328552246,-3.0524210929870605 C2.2177138328552246,-3.0524210929870605 7.177623748779297,-2.332151174545288 7.177623748779297,-2.332151174545288 C7.177623748779297,-2.332151174545288 3.588336229324341,1.1659210920333862 3.588336229324341,1.1659210920333862 C3.588336229324341,1.1659210920333862 4.4360151290893555,6.105651378631592 4.4360151290893555,6.105651378631592 C4.4360151290893555,6.105651378631592 2.310296127921497e-16,3.7730000019073486 2.310296127921497e-16,3.7730000019073486 C2.310296127921497e-16,3.7730000019073486 -4.4360151290893555,6.105651378631592 -4.4360151290893555,6.105651378631592 C-4.4360151290893555,6.105651378631592 -3.588336229324341,1.1659210920333862 -3.588336229324341,1.1659210920333862 C-3.588336229324341,1.1659210920333862 -7.177623748779297,-2.332151174545288 -7.177623748779297,-2.332151174545288 C-7.177623748779297,-2.332151174545288 -2.2177138328552246,-3.0524210929870605 -2.2177138328552246,-3.0524210929870605 C-2.2177138328552246,-3.0524210929870605 4.621204766542977e-16,-7.546999931335449 4.621204766542977e-16,-7.546999931335449z"></path></g></g><g style="display: none;" transform="matrix(-0.28168293833732605,-0.5297685861587524,0.5297685861587524,-0.28168293833732605,194.0309295654297,314.67596435546875)" opacity="1"><g opacity="1" transform="matrix(1,0,0,1,-209.75,-80.25)"><path fill="rgb(112,255,129)" fill-opacity="1" d=" M4.621204766542977e-16,-7.546999931335449 C4.621204766542977e-16,-7.546999931335449 2.2177138328552246,-3.0524210929870605 2.2177138328552246,-3.0524210929870605 C2.2177138328552246,-3.0524210929870605 7.177623748779297,-2.332151174545288 7.177623748779297,-2.332151174545288 C7.177623748779297,-2.332151174545288 3.588336229324341,1.1659210920333862 3.588336229324341,1.1659210920333862 C3.588336229324341,1.1659210920333862 4.4360151290893555,6.105651378631592 4.4360151290893555,6.105651378631592 C4.4360151290893555,6.105651378631592 2.310296127921497e-16,3.7730000019073486 2.310296127921497e-16,3.7730000019073486 C2.310296127921497e-16,3.7730000019073486 -4.4360151290893555,6.105651378631592 -4.4360151290893555,6.105651378631592 C-4.4360151290893555,6.105651378631592 -3.588336229324341,1.1659210920333862 -3.588336229324341,1.1659210920333862 C-3.588336229324341,1.1659210920333862 -7.177623748779297,-2.332151174545288 -7.177623748779297,-2.332151174545288 C-7.177623748779297,-2.332151174545288 -2.2177138328552246,-3.0524210929870605 -2.2177138328552246,-3.0524210929870605 C-2.2177138328552246,-3.0524210929870605 4.621204766542977e-16,-7.546999931335449 4.621204766542977e-16,-7.546999931335449z"></path></g></g><g style="display: none;" transform="matrix(0.5657001733779907,-0.19995833933353424,0.19995833933353424,0.5657001733779907,200.7022705078125,448.25616455078125)" opacity="1"><g opacity="1" transform="matrix(1.4800000190734863,0,0,1.4800000190734863,-209.75,-80.25)"><path fill="rgb(255,255,255)" fill-opacity="1" d=" M4.621204766542977e-16,-7.546999931335449 C4.621204766542977e-16,-7.546999931335449 1.8865000009536743,-3.2675137519836426 1.8865000009536743,-3.2675137519836426 C1.8865000009536743,-3.2675137519836426 6.53589391708374,-3.7734999656677246 6.53589391708374,-3.7734999656677246 C6.53589391708374,-3.7734999656677246 3.7730000019073486,-8.377742948056596e-16 3.7730000019073486,-8.377742948056596e-16 C3.7730000019073486,-8.377742948056596e-16 6.53589391708374,3.7734999656677246 6.53589391708374,3.7734999656677246 C6.53589391708374,3.7734999656677246 1.8865000009536743,3.2675137519836426 1.8865000009536743,3.2675137519836426 C1.8865000009536743,3.2675137519836426 3.813661659959975e-15,7.546999931335449 3.813661659959975e-15,7.546999931335449 C3.813661659959975e-15,7.546999931335449 -1.8865000009536743,3.2675137519836426 -1.8865000009536743,3.2675137519836426 C-1.8865000009536743,3.2675137519836426 -6.53589391708374,3.7734999656677246 -6.53589391708374,3.7734999656677246 C-6.53589391708374,3.7734999656677246 -3.7730000019073486,3.813156404806938e-15 -3.7730000019073486,3.813156404806938e-15 C-3.7730000019073486,3.813156404806938e-15 -6.53589391708374,-3.7734999656677246 -6.53589391708374,-3.7734999656677246 C-6.53589391708374,-3.7734999656677246 -1.8865000009536743,-3.2675137519836426 -1.8865000009536743,-3.2675137519836426 C-1.8865000009536743,-3.2675137519836426 4.621204766542977e-16,-7.546999931335449 4.621204766542977e-16,-7.546999931335449z"></path></g></g><g style="display: none;" transform="matrix(0.5926130414009094,-0.0938606858253479,0.0938606858253479,0.5926130414009094,322.6329040527344,498.46990966796875)" opacity="1"><g opacity="1" transform="matrix(1.4800000190734863,0,0,1.4800000190734863,-209.75,-80.25)"><path fill="rgb(112,255,129)" fill-opacity="1" d=" M4.621204766542977e-16,-7.546999931335449 C4.621204766542977e-16,-7.546999931335449 1.8865000009536743,-3.2675137519836426 1.8865000009536743,-3.2675137519836426 C1.8865000009536743,-3.2675137519836426 6.53589391708374,-3.7734999656677246 6.53589391708374,-3.7734999656677246 C6.53589391708374,-3.7734999656677246 3.7730000019073486,-8.377742948056596e-16 3.7730000019073486,-8.377742948056596e-16 C3.7730000019073486,-8.377742948056596e-16 6.53589391708374,3.7734999656677246 6.53589391708374,3.7734999656677246 C6.53589391708374,3.7734999656677246 1.8865000009536743,3.2675137519836426 1.8865000009536743,3.2675137519836426 C1.8865000009536743,3.2675137519836426 3.813661659959975e-15,7.546999931335449 3.813661659959975e-15,7.546999931335449 C3.813661659959975e-15,7.546999931335449 -1.8865000009536743,3.2675137519836426 -1.8865000009536743,3.2675137519836426 C-1.8865000009536743,3.2675137519836426 -6.53589391708374,3.7734999656677246 -6.53589391708374,3.7734999656677246 C-6.53589391708374,3.7734999656677246 -3.7730000019073486,3.813156404806938e-15 -3.7730000019073486,3.813156404806938e-15 C-3.7730000019073486,3.813156404806938e-15 -6.53589391708374,-3.7734999656677246 -6.53589391708374,-3.7734999656677246 C-6.53589391708374,-3.7734999656677246 -1.8865000009536743,-3.2675137519836426 -1.8865000009536743,-3.2675137519836426 C-1.8865000009536743,-3.2675137519836426 4.621204766542977e-16,-7.546999931335449 4.621204766542977e-16,-7.546999931335449z"></path></g></g><g style="display: none;" transform="matrix(-0.9543691277503967,2.422807216644287,-2.422807216644287,-0.9543691277503967,-76.24050903320312,912.4651489257812)" opacity="1"><g opacity="1" transform="matrix(1.090000033378601,0,0,1.090000033378601,0,0)"><path fill="rgb(255,255,255)" fill-opacity="1" d=" M-209.5,-105.25 C-210.25,-105.375 -210.31300354003906,-103.81199645996094 -210.68800354003906,-103.81199645996094 C-211.06300354003906,-103.81199645996094 -211.68699645996094,-103.18699645996094 -211.375,-102.81199645996094 C-211.06300354003906,-102.43699645996094 -210.25,-102 -209.81199645996094,-102.375 C-209.37399291992188,-102.75 -208.81199645996094,-102.3759994506836 -208.5,-102.93800354003906 C-208.18800354003906,-103.5 -208.75,-103.81300354003906 -208.68800354003906,-104.375 C-208.62600708007812,-104.93699645996094 -208.75,-105.125 -209.5,-105.25z"></path></g></g><g style="display: none;" transform="matrix(2.3788723945617676,-1.0591422319412231,1.0591422319412231,2.3788723945617676,643.7993774414062,341.9195556640625)" opacity="1"><g opacity="1" transform="matrix(1.090000033378601,0,0,1.090000033378601,0,0)"><path fill="rgb(255,255,255)" fill-opacity="1" d=" M-209.5919952392578,-104.57599639892578 C-210.3419952392578,-104.70099639892578 -210.81500244140625,-104.45600128173828 -211.0570068359375,-104.16899871826172 C-211.70799255371094,-103.39700317382812 -211.68699645996094,-103.18699645996094 -211.375,-102.81199645996094 C-211.06300354003906,-102.43699645996094 -210.78399658203125,-102.06600189208984 -210.38099670410156,-102.2300033569336 C-209.97799682617188,-102.39399719238281 -209.2220001220703,-102.177001953125 -208.91000366210938,-102.73899841308594 C-208.59800720214844,-103.3010025024414 -208.89500427246094,-103.36399841308594 -208.83299255371094,-103.9260025024414 C-208.8159942626953,-104.24299621582031 -208.8419952392578,-104.45099639892578 -209.5919952392578,-104.57599639892578z"></path></g></g><g style="display: none;" transform="matrix(0.6000000238418579,0,0,0.6000000238418579,70.74419403076172,503.85919189453125)" opacity="1"><g opacity="1" transform="matrix(1,0,0,1,159.09300231933594,-46.43199920654297)"><path fill="rgb(255,255,255)" fill-opacity="1" d=" M0,-4.550000190734863 C2.5111451148986816,-4.550000190734863 4.550000190734863,-2.5111451148986816 4.550000190734863,0 C4.550000190734863,2.5111451148986816 2.5111451148986816,4.550000190734863 0,4.550000190734863 C-2.5111451148986816,4.550000190734863 -4.550000190734863,2.5111451148986816 -4.550000190734863,0 C-4.550000190734863,-2.5111451148986816 -2.5111451148986816,-4.550000190734863 0,-4.550000190734863z"></path></g></g><g style="display: none;" transform="matrix(0.20521210134029388,0.5638155937194824,-0.5638155937194824,0.20521210134029388,124.24703216552734,595.278564453125)" opacity="1"><g opacity="1" transform="matrix(1,0,0,1,-209.75,-80.25)"><path fill="rgb(112,255,129)" fill-opacity="1" d=" M4.621204766542977e-16,-7.546999931335449 C4.621204766542977e-16,-7.546999931335449 2.2177138328552246,-3.0524210929870605 2.2177138328552246,-3.0524210929870605 C2.2177138328552246,-3.0524210929870605 7.177623748779297,-2.332151174545288 7.177623748779297,-2.332151174545288 C7.177623748779297,-2.332151174545288 3.588336229324341,1.1659210920333862 3.588336229324341,1.1659210920333862 C3.588336229324341,1.1659210920333862 4.4360151290893555,6.105651378631592 4.4360151290893555,6.105651378631592 C4.4360151290893555,6.105651378631592 2.310296127921497e-16,3.7730000019073486 2.310296127921497e-16,3.7730000019073486 C2.310296127921497e-16,3.7730000019073486 -4.4360151290893555,6.105651378631592 -4.4360151290893555,6.105651378631592 C-4.4360151290893555,6.105651378631592 -3.588336229324341,1.1659210920333862 -3.588336229324341,1.1659210920333862 C-3.588336229324341,1.1659210920333862 -7.177623748779297,-2.332151174545288 -7.177623748779297,-2.332151174545288 C-7.177623748779297,-2.332151174545288 -2.2177138328552246,-3.0524210929870605 -2.2177138328552246,-3.0524210929870605 C-2.2177138328552246,-3.0524210929870605 4.621204766542977e-16,-7.546999931335449 4.621204766542977e-16,-7.546999931335449z"></path></g></g><g style="display: none;" transform="matrix(0.43799999356269836,0,0,0.43799999356269836,-310.8002624511719,496.8602294921875)" opacity="1"><g opacity="1" transform="matrix(1,0,0,1,226.0279998779297,-88.72200012207031)"><path fill="rgb(112,255,129)" fill-opacity="1" d=" M0,-9.050000190734863 C4.99469518661499,-9.050000190734863 9.050000190734863,-4.99469518661499 9.050000190734863,0 C9.050000190734863,4.99469518661499 4.99469518661499,9.050000190734863 0,9.050000190734863 C-4.99469518661499,9.050000190734863 -9.050000190734863,4.99469518661499 -9.050000190734863,0 C-9.050000190734863,-4.99469518661499 -4.99469518661499,-9.050000190734863 0,-9.050000190734863z"></path></g></g><g style="display: none;" transform="matrix(-0.5523029565811157,0.2344386875629425,-0.2344386875629425,-0.5523029565811157,-320.0592346191406,443.65118408203125)" opacity="1"><g opacity="1" transform="matrix(1.4800000190734863,0,0,1.4800000190734863,-209.75,-80.25)"><path fill="rgb(112,255,129)" fill-opacity="1" d=" M4.621204766542977e-16,-7.546999931335449 C4.621204766542977e-16,-7.546999931335449 1.8865000009536743,-3.2675137519836426 1.8865000009536743,-3.2675137519836426 C1.8865000009536743,-3.2675137519836426 6.53589391708374,-3.7734999656677246 6.53589391708374,-3.7734999656677246 C6.53589391708374,-3.7734999656677246 3.7730000019073486,-8.377742948056596e-16 3.7730000019073486,-8.377742948056596e-16 C3.7730000019073486,-8.377742948056596e-16 6.53589391708374,3.7734999656677246 6.53589391708374,3.7734999656677246 C6.53589391708374,3.7734999656677246 1.8865000009536743,3.2675137519836426 1.8865000009536743,3.2675137519836426 C1.8865000009536743,3.2675137519836426 3.813661659959975e-15,7.546999931335449 3.813661659959975e-15,7.546999931335449 C3.813661659959975e-15,7.546999931335449 -1.8865000009536743,3.2675137519836426 -1.8865000009536743,3.2675137519836426 C-1.8865000009536743,3.2675137519836426 -6.53589391708374,3.7734999656677246 -6.53589391708374,3.7734999656677246 C-6.53589391708374,3.7734999656677246 -3.7730000019073486,3.813156404806938e-15 -3.7730000019073486,3.813156404806938e-15 C-3.7730000019073486,3.813156404806938e-15 -6.53589391708374,-3.7734999656677246 -6.53589391708374,-3.7734999656677246 C-6.53589391708374,-3.7734999656677246 -1.8865000009536743,-3.2675137519836426 -1.8865000009536743,-3.2675137519836426 C-1.8865000009536743,-3.2675137519836426 4.621204766542977e-16,-7.546999931335449 4.621204766542977e-16,-7.546999931335449z"></path></g></g><g style="display: none;" transform="matrix(-0.15189926326274872,-0.8688214421272278,0.8688214421272278,-0.15189926326274872,-127.81228637695312,566.5838623046875)" opacity="1"><g opacity="1" transform="matrix(1,0,0,1,0,0)"><path fill="rgb(255,255,255)" fill-opacity="1" d=" M102.25,-14.5 C101.25,-15 99.5,-11.75 98.5,-10.5 C97.5,-9.25 96,-3.25 96,0.25 C96,3.75 99.25,3.25 101.5,3.5 C103.75,3.75 104.5,8.5 103.75,11 C103,13.5 107.75,10.75 110,7 C110.9280014038086,5.453999996185303 108.5,3.5 108.75,-3 C108.81999969482422,-4.818999767303467 108.25,-6.25 106,-5.25 C103.75,-4.25 102,-1 102.5,-3.25 C103,-5.5 107,-7 106.25,-9.5 C105.5,-12 103.25,-14 102.25,-14.5z"></path></g></g><g style="display: none;" transform="matrix(-0.4945765435695648,-0.3396970331668854,0.3396970331668854,-0.4945765435695648,413.7699890136719,452.3323059082031)" opacity="1"><g opacity="1" transform="matrix(1,0,0,1,0,0)"><path fill="rgb(255,255,255)" fill-opacity="1" d=" M132,-114 C129.75,-116.25 126,-110.5 124,-107.75 C122,-105 123,-103 120,-95.5 C117,-88 119.25,-86 123,-86.25 C126.75,-86.5 132.25,-92.5 132.5,-96.75 C132.75,-101 134.25,-111.75 132,-114z"></path></g></g><g style="display: none;" transform="matrix(0.8238750100135803,-0.3148873746395111,0.3148873746395111,0.8238750100135803,224.46163940429688,498.7345275878906)" opacity="1"><g opacity="1" transform="matrix(1,0,0,1,0,0)"><path fill="rgb(112,255,129)" fill-opacity="1" d=" M102.25,-14.5 C101.25,-15 99.5,-11.75 98.5,-10.5 C97.5,-9.25 96,-3.25 96,0.25 C96,3.75 99.25,3.25 101.5,3.5 C103.75,3.75 104.5,8.5 103.75,11 C103,13.5 107.75,10.75 110,7 C110.9280014038086,5.453999996185303 108.5,3.5 108.75,-3 C108.81999969482422,-4.818999767303467 108.25,-6.25 106,-5.25 C103.75,-4.25 102,-1 102.5,-3.25 C103,-5.5 107,-7 106.25,-9.5 C105.5,-12 103.25,-14 102.25,-14.5z"></path></g></g><g style="display: none;" transform="matrix(-0.06271708011627197,-0.5967131853103638,0.5967131853103638,-0.06271708011627197,319.7313232421875,258.20635986328125)" opacity="1"><g opacity="1" transform="matrix(1,0,0,1,-209.75,-80.25)"><path fill="rgb(255,255,255)" fill-opacity="1" d=" M4.621204766542977e-16,-7.546999931335449 C4.621204766542977e-16,-7.546999931335449 2.2177138328552246,-3.0524210929870605 2.2177138328552246,-3.0524210929870605 C2.2177138328552246,-3.0524210929870605 7.177623748779297,-2.332151174545288 7.177623748779297,-2.332151174545288 C7.177623748779297,-2.332151174545288 3.588336229324341,1.1659210920333862 3.588336229324341,1.1659210920333862 C3.588336229324341,1.1659210920333862 4.4360151290893555,6.105651378631592 4.4360151290893555,6.105651378631592 C4.4360151290893555,6.105651378631592 2.310296127921497e-16,3.7730000019073486 2.310296127921497e-16,3.7730000019073486 C2.310296127921497e-16,3.7730000019073486 -4.4360151290893555,6.105651378631592 -4.4360151290893555,6.105651378631592 C-4.4360151290893555,6.105651378631592 -3.588336229324341,1.1659210920333862 -3.588336229324341,1.1659210920333862 C-3.588336229324341,1.1659210920333862 -7.177623748779297,-2.332151174545288 -7.177623748779297,-2.332151174545288 C-7.177623748779297,-2.332151174545288 -2.2177138328552246,-3.0524210929870605 -2.2177138328552246,-3.0524210929870605 C-2.2177138328552246,-3.0524210929870605 4.621204766542977e-16,-7.546999931335449 4.621204766542977e-16,-7.546999931335449z"></path></g></g><g style="display: none;" transform="matrix(0.6000000238418579,0,0,0.6000000238418579,-216.05580139160156,427.0592041015625)" opacity="1"><g opacity="1" transform="matrix(1,0,0,1,159.09300231933594,-46.43199920654297)"><path fill="rgb(255,255,255)" fill-opacity="1" d=" M0,-4.550000190734863 C2.5111451148986816,-4.550000190734863 4.550000190734863,-2.5111451148986816 4.550000190734863,0 C4.550000190734863,2.5111451148986816 2.5111451148986816,4.550000190734863 0,4.550000190734863 C-2.5111451148986816,4.550000190734863 -4.550000190734863,2.5111451148986816 -4.550000190734863,0 C-4.550000190734863,-2.5111451148986816 -2.5111451148986816,-4.550000190734863 0,-4.550000190734863z"></path></g></g><g style="display: none;" transform="matrix(0,-0.6000000238418579,0.6000000238418579,0,343.9499816894531,234.94998168945312)" opacity="1"><g opacity="1" transform="matrix(1,0,0,1,-209.75,-80.25)"><path fill="rgb(255,255,255)" fill-opacity="1" d=" M4.621204766542977e-16,-7.546999931335449 C4.621204766542977e-16,-7.546999931335449 2.2177138328552246,-3.0524210929870605 2.2177138328552246,-3.0524210929870605 C2.2177138328552246,-3.0524210929870605 7.177623748779297,-2.332151174545288 7.177623748779297,-2.332151174545288 C7.177623748779297,-2.332151174545288 3.588336229324341,1.1659210920333862 3.588336229324341,1.1659210920333862 C3.588336229324341,1.1659210920333862 4.4360151290893555,6.105651378631592 4.4360151290893555,6.105651378631592 C4.4360151290893555,6.105651378631592 2.310296127921497e-16,3.7730000019073486 2.310296127921497e-16,3.7730000019073486 C2.310296127921497e-16,3.7730000019073486 -4.4360151290893555,6.105651378631592 -4.4360151290893555,6.105651378631592 C-4.4360151290893555,6.105651378631592 -3.588336229324341,1.1659210920333862 -3.588336229324341,1.1659210920333862 C-3.588336229324341,1.1659210920333862 -7.177623748779297,-2.332151174545288 -7.177623748779297,-2.332151174545288 C-7.177623748779297,-2.332151174545288 -2.2177138328552246,-3.0524210929870605 -2.2177138328552246,-3.0524210929870605 C-2.2177138328552246,-3.0524210929870605 4.621204766542977e-16,-7.546999931335449 4.621204766542977e-16,-7.546999931335449z"></path></g></g><g style="display: none;" transform="matrix(0.9180508255958557,0,0,0.9180508255958557,173.4824981689453,45.43212127685547)" opacity="0.01300000000065083"><g opacity="1" transform="matrix(1,0,0,1,-29.5,37.5)"><path fill="rgb(255,255,255)" fill-opacity="1" d=" M0,-23.106000900268555 C-12.76099967956543,-23.106000900268555 -23.106000900268555,-12.76099967956543 -23.106000900268555,0 C-23.106000900268555,12.76099967956543 -12.76099967956543,23.106000900268555 0,23.106000900268555 C12.76099967956543,23.106000900268555 23.106000900268555,12.76099967956543 23.106000900268555,0 C23.106000900268555,-12.76099967956543 12.76099967956543,-23.106000900268555 0,-23.106000900268555z"></path></g></g><g style="display: none;" transform="matrix(1.1000770330429077,0,0,1.1000770330429077,178.85226440429688,38.69715118408203)" opacity="0.015275000000868176"><g opacity="1" transform="matrix(1,0,0,1,-29.5,37.5)"><path stroke-linecap="butt" stroke-linejoin="miter" fill-opacity="0" stroke-miterlimit="4" stroke="rgb(255,255,255)" stroke-opacity="1" stroke-width="4" d=" M0,-23.106000900268555 C-12.76099967956543,-23.106000900268555 -23.106000900268555,-12.76099967956543 -23.106000900268555,0 C-23.106000900268555,12.76099967956543 -12.76099967956543,23.106000900268555 0,23.106000900268555 C12.76099967956543,23.106000900268555 23.106000900268555,12.76099967956543 23.106000900268555,0 C23.106000900268555,-12.76099967956543 12.76099967956543,-23.106000900268555 0,-23.106000900268555z"></path></g></g><g style="display: none;" transform="matrix(2.550814151763916,-0.5236069560050964,0.5236069560050964,2.550814151763916,868.1814575195312,600.39453125)" opacity="1"><g opacity="1" transform="matrix(1.090000033378601,0,0,1.090000033378601,0,0)"><path fill="rgb(112,255,129)" fill-opacity="1" d=" M-209.5,-105.25 C-210.25,-105.375 -210.31300354003906,-103.81199645996094 -210.68800354003906,-103.81199645996094 C-211.06300354003906,-103.81199645996094 -211.68699645996094,-103.18699645996094 -211.375,-102.81199645996094 C-211.06300354003906,-102.43699645996094 -210.25,-102 -209.81199645996094,-102.375 C-209.37399291992188,-102.75 -208.81199645996094,-102.3759994506836 -208.5,-102.93800354003906 C-208.18800354003906,-103.5 -208.75,-103.81300354003906 -208.68800354003906,-104.375 C-208.62600708007812,-104.93699645996094 -208.75,-105.125 -209.5,-105.25z"></path></g></g><g style="display: none;" transform="matrix(2.6040000915527344,0,0,2.6040000915527344,972.3603515625,704.5197143554688)" opacity="1"><g opacity="1" transform="matrix(1.090000033378601,0,0,1.090000033378601,0,0)"><path fill="rgb(112,255,129)" fill-opacity="1" d=" M-209.5919952392578,-104.57599639892578 C-210.3419952392578,-104.70099639892578 -210.81500244140625,-104.45600128173828 -211.0570068359375,-104.16899871826172 C-211.70799255371094,-103.39700317382812 -211.68699645996094,-103.18699645996094 -211.375,-102.81199645996094 C-211.06300354003906,-102.43699645996094 -210.78399658203125,-102.06600189208984 -210.38099670410156,-102.2300033569336 C-209.97799682617188,-102.39399719238281 -209.2220001220703,-102.177001953125 -208.91000366210938,-102.73899841308594 C-208.59800720214844,-103.3010025024414 -208.89500427246094,-103.36399841308594 -208.83299255371094,-103.9260025024414 C-208.8159942626953,-104.24299621582031 -208.8419952392578,-104.45099639892578 -209.5919952392578,-104.57599639892578z"></path></g></g><g style="display: none;" transform="matrix(0.8820000290870667,0,0,0.8820000290870667,77.26049041748047,369.34307861328125)" opacity="1"><g opacity="1" transform="matrix(1,0,0,1,0,0)"><path fill="rgb(255,255,255)" fill-opacity="1" d=" M102.25,-14.5 C101.25,-15 99.5,-11.75 98.5,-10.5 C97.5,-9.25 96,-3.25 96,0.25 C96,3.75 99.25,3.25 101.5,3.5 C103.75,3.75 104.5,8.5 103.75,11 C103,13.5 107.75,10.75 110,7 C110.9280014038086,5.453999996185303 108.5,3.5 108.75,-3 C108.81999969482422,-4.818999767303467 108.25,-6.25 106,-5.25 C103.75,-4.25 102,-1 102.5,-3.25 C103,-5.5 107,-7 106.25,-9.5 C105.5,-12 103.25,-14 102.25,-14.5z"></path></g></g><g style="display: none;" transform="matrix(-0.08886171132326126,-0.5933831930160522,0.5933831930160522,-0.08886171132326126,338.5469055175781,468.79681396484375)" opacity="1"><g opacity="1" transform="matrix(1,0,0,1,0,0)"><path fill="rgb(255,255,255)" fill-opacity="1" d=" M132,-114 C129.75,-116.25 126,-110.5 124,-107.75 C122,-105 123,-103 120,-95.5 C117,-88 119.25,-86 123,-86.25 C126.75,-86.5 132.25,-92.5 132.5,-96.75 C132.75,-101 134.25,-111.75 132,-114z"></path></g></g><g style="display: none;" transform="matrix(0.10418891161680222,-0.5908846855163574,0.5908846855163574,0.10418891161680222,232.65090942382812,485.8962097167969)" opacity="1"><g opacity="1" transform="matrix(1,0,0,1,0,0)"><path fill="rgb(112,255,129)" fill-opacity="1" d=" M39,-66.5 C28.351999282836914,-72.23300170898438 31.5,-64.5 32,-61.5 C32.5,-58.5 32.5,-51.5 35.5,-51.5 C38.5,-51.5 45.5,-51.5 47,-53 C48.5,-54.5 45.5,-63 39,-66.5z"></path></g></g><g style="display: none;" transform="matrix(0.35731664299964905,-0.04387296736240387,0.04387296736240387,0.35731664299964905,346.6318054199219,449.7707824707031)" opacity="1"><g opacity="1" transform="matrix(1,0,0,1,0,0)"><path fill="rgb(112,255,129)" fill-opacity="1" d=" M39,-66.5 C28.351999282836914,-72.23300170898438 31.5,-64.5 32,-61.5 C32.5,-58.5 32.5,-51.5 35.5,-51.5 C38.5,-51.5 45.5,-51.5 47,-53 C48.5,-54.5 45.5,-63 39,-66.5z"></path></g></g><g style="display: none;" transform="matrix(0.6000000238418579,0,0,0.6000000238418579,17.58317756652832,474.23321533203125)" opacity="1"><g opacity="1" transform="matrix(1,0,0,1,226.0279998779297,-88.72200012207031)"><path fill="rgb(112,255,129)" fill-opacity="1" d=" M0,-9.050000190734863 C4.99469518661499,-9.050000190734863 9.050000190734863,-4.99469518661499 9.050000190734863,0 C9.050000190734863,4.99469518661499 4.99469518661499,9.050000190734863 0,9.050000190734863 C-4.99469518661499,9.050000190734863 -9.050000190734863,4.99469518661499 -9.050000190734863,0 C-9.050000190734863,-4.99469518661499 -4.99469518661499,-9.050000190734863 0,-9.050000190734863z"></path></g></g><g style="display: none;" transform="matrix(-0.15529143810272217,-0.5795555114746094,0.5795555114746094,-0.15529143810272217,192.15480041503906,302.4641418457031)" opacity="1"><g opacity="1" transform="matrix(1,0,0,1,-209.75,-80.25)"><path fill="rgb(255,255,255)" fill-opacity="1" d=" M4.621204766542977e-16,-7.546999931335449 C4.621204766542977e-16,-7.546999931335449 2.2177138328552246,-3.0524210929870605 2.2177138328552246,-3.0524210929870605 C2.2177138328552246,-3.0524210929870605 7.177623748779297,-2.332151174545288 7.177623748779297,-2.332151174545288 C7.177623748779297,-2.332151174545288 3.588336229324341,1.1659210920333862 3.588336229324341,1.1659210920333862 C3.588336229324341,1.1659210920333862 4.4360151290893555,6.105651378631592 4.4360151290893555,6.105651378631592 C4.4360151290893555,6.105651378631592 2.310296127921497e-16,3.7730000019073486 2.310296127921497e-16,3.7730000019073486 C2.310296127921497e-16,3.7730000019073486 -4.4360151290893555,6.105651378631592 -4.4360151290893555,6.105651378631592 C-4.4360151290893555,6.105651378631592 -3.588336229324341,1.1659210920333862 -3.588336229324341,1.1659210920333862 C-3.588336229324341,1.1659210920333862 -7.177623748779297,-2.332151174545288 -7.177623748779297,-2.332151174545288 C-7.177623748779297,-2.332151174545288 -2.2177138328552246,-3.0524210929870605 -2.2177138328552246,-3.0524210929870605 C-2.2177138328552246,-3.0524210929870605 4.621204766542977e-16,-7.546999931335449 4.621204766542977e-16,-7.546999931335449z"></path></g></g><g style="display: none;" transform="matrix(-0.28168296813964844,-0.5297685861587524,0.5297685861587524,-0.28168296813964844,316.03094482421875,271.6759948730469)" opacity="1"><g opacity="1" transform="matrix(1,0,0,1,-209.75,-80.25)"><path fill="rgb(112,255,129)" fill-opacity="1" d=" M4.621204766542977e-16,-7.546999931335449 C4.621204766542977e-16,-7.546999931335449 2.2177138328552246,-3.0524210929870605 2.2177138328552246,-3.0524210929870605 C2.2177138328552246,-3.0524210929870605 7.177623748779297,-2.332151174545288 7.177623748779297,-2.332151174545288 C7.177623748779297,-2.332151174545288 3.588336229324341,1.1659210920333862 3.588336229324341,1.1659210920333862 C3.588336229324341,1.1659210920333862 4.4360151290893555,6.105651378631592 4.4360151290893555,6.105651378631592 C4.4360151290893555,6.105651378631592 2.310296127921497e-16,3.7730000019073486 2.310296127921497e-16,3.7730000019073486 C2.310296127921497e-16,3.7730000019073486 -4.4360151290893555,6.105651378631592 -4.4360151290893555,6.105651378631592 C-4.4360151290893555,6.105651378631592 -3.588336229324341,1.1659210920333862 -3.588336229324341,1.1659210920333862 C-3.588336229324341,1.1659210920333862 -7.177623748779297,-2.332151174545288 -7.177623748779297,-2.332151174545288 C-7.177623748779297,-2.332151174545288 -2.2177138328552246,-3.0524210929870605 -2.2177138328552246,-3.0524210929870605 C-2.2177138328552246,-3.0524210929870605 4.621204766542977e-16,-7.546999931335449 4.621204766542977e-16,-7.546999931335449z"></path></g></g><g style="display: none;" transform="matrix(0.5657001733779907,-0.19995833933353424,0.19995833933353424,0.5657001733779907,322.7022705078125,405.2561950683594)" opacity="1"><g opacity="1" transform="matrix(1.4800000190734863,0,0,1.4800000190734863,-209.75,-80.25)"><path fill="rgb(255,255,255)" fill-opacity="1" d=" M4.621204766542977e-16,-7.546999931335449 C4.621204766542977e-16,-7.546999931335449 1.8865000009536743,-3.2675137519836426 1.8865000009536743,-3.2675137519836426 C1.8865000009536743,-3.2675137519836426 6.53589391708374,-3.7734999656677246 6.53589391708374,-3.7734999656677246 C6.53589391708374,-3.7734999656677246 3.7730000019073486,-8.377742948056596e-16 3.7730000019073486,-8.377742948056596e-16 C3.7730000019073486,-8.377742948056596e-16 6.53589391708374,3.7734999656677246 6.53589391708374,3.7734999656677246 C6.53589391708374,3.7734999656677246 1.8865000009536743,3.2675137519836426 1.8865000009536743,3.2675137519836426 C1.8865000009536743,3.2675137519836426 3.813661659959975e-15,7.546999931335449 3.813661659959975e-15,7.546999931335449 C3.813661659959975e-15,7.546999931335449 -1.8865000009536743,3.2675137519836426 -1.8865000009536743,3.2675137519836426 C-1.8865000009536743,3.2675137519836426 -6.53589391708374,3.7734999656677246 -6.53589391708374,3.7734999656677246 C-6.53589391708374,3.7734999656677246 -3.7730000019073486,3.813156404806938e-15 -3.7730000019073486,3.813156404806938e-15 C-3.7730000019073486,3.813156404806938e-15 -6.53589391708374,-3.7734999656677246 -6.53589391708374,-3.7734999656677246 C-6.53589391708374,-3.7734999656677246 -1.8865000009536743,-3.2675137519836426 -1.8865000009536743,-3.2675137519836426 C-1.8865000009536743,-3.2675137519836426 4.621204766542977e-16,-7.546999931335449 4.621204766542977e-16,-7.546999931335449z"></path></g></g><g style="display: none;" transform="matrix(0.5926130414009094,-0.0938606783747673,0.0938606783747673,0.5926130414009094,444.6329040527344,455.46990966796875)" opacity="1"><g opacity="1" transform="matrix(1.4800000190734863,0,0,1.4800000190734863,-209.75,-80.25)"><path fill="rgb(112,255,129)" fill-opacity="1" d=" M4.621204766542977e-16,-7.546999931335449 C4.621204766542977e-16,-7.546999931335449 1.8865000009536743,-3.2675137519836426 1.8865000009536743,-3.2675137519836426 C1.8865000009536743,-3.2675137519836426 6.53589391708374,-3.7734999656677246 6.53589391708374,-3.7734999656677246 C6.53589391708374,-3.7734999656677246 3.7730000019073486,-8.377742948056596e-16 3.7730000019073486,-8.377742948056596e-16 C3.7730000019073486,-8.377742948056596e-16 6.53589391708374,3.7734999656677246 6.53589391708374,3.7734999656677246 C6.53589391708374,3.7734999656677246 1.8865000009536743,3.2675137519836426 1.8865000009536743,3.2675137519836426 C1.8865000009536743,3.2675137519836426 3.813661659959975e-15,7.546999931335449 3.813661659959975e-15,7.546999931335449 C3.813661659959975e-15,7.546999931335449 -1.8865000009536743,3.2675137519836426 -1.8865000009536743,3.2675137519836426 C-1.8865000009536743,3.2675137519836426 -6.53589391708374,3.7734999656677246 -6.53589391708374,3.7734999656677246 C-6.53589391708374,3.7734999656677246 -3.7730000019073486,3.813156404806938e-15 -3.7730000019073486,3.813156404806938e-15 C-3.7730000019073486,3.813156404806938e-15 -6.53589391708374,-3.7734999656677246 -6.53589391708374,-3.7734999656677246 C-6.53589391708374,-3.7734999656677246 -1.8865000009536743,-3.2675137519836426 -1.8865000009536743,-3.2675137519836426 C-1.8865000009536743,-3.2675137519836426 4.621204766542977e-16,-7.546999931335449 4.621204766542977e-16,-7.546999931335449z"></path></g></g><g style="display: none;" transform="matrix(-0.9543692469596863,2.4228076934814453,-2.4228076934814453,-0.9543692469596863,45.75944900512695,869.4651489257812)" opacity="1"><g opacity="1" transform="matrix(1.090000033378601,0,0,1.090000033378601,0,0)"><path fill="rgb(255,255,255)" fill-opacity="1" d=" M-209.5,-105.25 C-210.25,-105.375 -210.31300354003906,-103.81199645996094 -210.68800354003906,-103.81199645996094 C-211.06300354003906,-103.81199645996094 -211.68699645996094,-103.18699645996094 -211.375,-102.81199645996094 C-211.06300354003906,-102.43699645996094 -210.25,-102 -209.81199645996094,-102.375 C-209.37399291992188,-102.75 -208.81199645996094,-102.3759994506836 -208.5,-102.93800354003906 C-208.18800354003906,-103.5 -208.75,-103.81300354003906 -208.68800354003906,-104.375 C-208.62600708007812,-104.93699645996094 -208.75,-105.125 -209.5,-105.25z"></path></g></g><g style="display: none;" transform="matrix(2.3788726329803467,-1.0591423511505127,1.0591423511505127,2.3788726329803467,765.7993774414062,298.9195861816406)" opacity="1"><g opacity="1" transform="matrix(1.090000033378601,0,0,1.090000033378601,0,0)"><path fill="rgb(255,255,255)" fill-opacity="1" d=" M-209.5919952392578,-104.57599639892578 C-210.3419952392578,-104.70099639892578 -210.81500244140625,-104.45600128173828 -211.0570068359375,-104.16899871826172 C-211.70799255371094,-103.39700317382812 -211.68699645996094,-103.18699645996094 -211.375,-102.81199645996094 C-211.06300354003906,-102.43699645996094 -210.78399658203125,-102.06600189208984 -210.38099670410156,-102.2300033569336 C-209.97799682617188,-102.39399719238281 -209.2220001220703,-102.177001953125 -208.91000366210938,-102.73899841308594 C-208.59800720214844,-103.3010025024414 -208.89500427246094,-103.36399841308594 -208.83299255371094,-103.9260025024414 C-208.8159942626953,-104.24299621582031 -208.8419952392578,-104.45099639892578 -209.5919952392578,-104.57599639892578z"></path></g></g><g style="display: none;" transform="matrix(0.6000000238418579,0,0,0.6000000238418579,192.7441864013672,460.8592224121094)" opacity="1"><g opacity="1" transform="matrix(1,0,0,1,159.09300231933594,-46.43199920654297)"><path fill="rgb(255,255,255)" fill-opacity="1" d=" M0,-4.550000190734863 C2.5111451148986816,-4.550000190734863 4.550000190734863,-2.5111451148986816 4.550000190734863,0 C4.550000190734863,2.5111451148986816 2.5111451148986816,4.550000190734863 0,4.550000190734863 C-2.5111451148986816,4.550000190734863 -4.550000190734863,2.5111451148986816 -4.550000190734863,0 C-4.550000190734863,-2.5111451148986816 -2.5111451148986816,-4.550000190734863 0,-4.550000190734863z"></path></g></g><g style="display: none;" transform="matrix(0.20521210134029388,0.5638155937194824,-0.5638155937194824,0.20521210134029388,246.24703979492188,552.278564453125)" opacity="1"><g opacity="1" transform="matrix(1,0,0,1,-209.75,-80.25)"><path fill="rgb(112,255,129)" fill-opacity="1" d=" M4.621204766542977e-16,-7.546999931335449 C4.621204766542977e-16,-7.546999931335449 2.2177138328552246,-3.0524210929870605 2.2177138328552246,-3.0524210929870605 C2.2177138328552246,-3.0524210929870605 7.177623748779297,-2.332151174545288 7.177623748779297,-2.332151174545288 C7.177623748779297,-2.332151174545288 3.588336229324341,1.1659210920333862 3.588336229324341,1.1659210920333862 C3.588336229324341,1.1659210920333862 4.4360151290893555,6.105651378631592 4.4360151290893555,6.105651378631592 C4.4360151290893555,6.105651378631592 2.310296127921497e-16,3.7730000019073486 2.310296127921497e-16,3.7730000019073486 C2.310296127921497e-16,3.7730000019073486 -4.4360151290893555,6.105651378631592 -4.4360151290893555,6.105651378631592 C-4.4360151290893555,6.105651378631592 -3.588336229324341,1.1659210920333862 -3.588336229324341,1.1659210920333862 C-3.588336229324341,1.1659210920333862 -7.177623748779297,-2.332151174545288 -7.177623748779297,-2.332151174545288 C-7.177623748779297,-2.332151174545288 -2.2177138328552246,-3.0524210929870605 -2.2177138328552246,-3.0524210929870605 C-2.2177138328552246,-3.0524210929870605 4.621204766542977e-16,-7.546999931335449 4.621204766542977e-16,-7.546999931335449z"></path></g></g><g style="display: none;" transform="matrix(0.43800002336502075,0,0,0.43800002336502075,-188.80027770996094,453.8602600097656)" opacity="1"><g opacity="1" transform="matrix(1,0,0,1,226.0279998779297,-88.72200012207031)"><path fill="rgb(112,255,129)" fill-opacity="1" d=" M0,-9.050000190734863 C4.99469518661499,-9.050000190734863 9.050000190734863,-4.99469518661499 9.050000190734863,0 C9.050000190734863,4.99469518661499 4.99469518661499,9.050000190734863 0,9.050000190734863 C-4.99469518661499,9.050000190734863 -9.050000190734863,4.99469518661499 -9.050000190734863,0 C-9.050000190734863,-4.99469518661499 -4.99469518661499,-9.050000190734863 0,-9.050000190734863z"></path></g></g><g style="display: none;" transform="matrix(-0.5523029565811157,0.2344386875629425,-0.2344386875629425,-0.5523029565811157,-198.05926513671875,400.6512145996094)" opacity="1"><g opacity="1" transform="matrix(1.4800000190734863,0,0,1.4800000190734863,-209.75,-80.25)"><path fill="rgb(112,255,129)" fill-opacity="1" d=" M4.621204766542977e-16,-7.546999931335449 C4.621204766542977e-16,-7.546999931335449 1.8865000009536743,-3.2675137519836426 1.8865000009536743,-3.2675137519836426 C1.8865000009536743,-3.2675137519836426 6.53589391708374,-3.7734999656677246 6.53589391708374,-3.7734999656677246 C6.53589391708374,-3.7734999656677246 3.7730000019073486,-8.377742948056596e-16 3.7730000019073486,-8.377742948056596e-16 C3.7730000019073486,-8.377742948056596e-16 6.53589391708374,3.7734999656677246 6.53589391708374,3.7734999656677246 C6.53589391708374,3.7734999656677246 1.8865000009536743,3.2675137519836426 1.8865000009536743,3.2675137519836426 C1.8865000009536743,3.2675137519836426 3.813661659959975e-15,7.546999931335449 3.813661659959975e-15,7.546999931335449 C3.813661659959975e-15,7.546999931335449 -1.8865000009536743,3.2675137519836426 -1.8865000009536743,3.2675137519836426 C-1.8865000009536743,3.2675137519836426 -6.53589391708374,3.7734999656677246 -6.53589391708374,3.7734999656677246 C-6.53589391708374,3.7734999656677246 -3.7730000019073486,3.813156404806938e-15 -3.7730000019073486,3.813156404806938e-15 C-3.7730000019073486,3.813156404806938e-15 -6.53589391708374,-3.7734999656677246 -6.53589391708374,-3.7734999656677246 C-6.53589391708374,-3.7734999656677246 -1.8865000009536743,-3.2675137519836426 -1.8865000009536743,-3.2675137519836426 C-1.8865000009536743,-3.2675137519836426 4.621204766542977e-16,-7.546999931335449 4.621204766542977e-16,-7.546999931335449z"></path></g></g><g style="display: none;" transform="matrix(-0.15189926326274872,-0.8688214421272278,0.8688214421272278,-0.15189926326274872,-5.812283039093018,523.5838623046875)" opacity="1"><g opacity="1" transform="matrix(1,0,0,1,0,0)"><path fill="rgb(255,255,255)" fill-opacity="1" d=" M102.25,-14.5 C101.25,-15 99.5,-11.75 98.5,-10.5 C97.5,-9.25 96,-3.25 96,0.25 C96,3.75 99.25,3.25 101.5,3.5 C103.75,3.75 104.5,8.5 103.75,11 C103,13.5 107.75,10.75 110,7 C110.9280014038086,5.453999996185303 108.5,3.5 108.75,-3 C108.81999969482422,-4.818999767303467 108.25,-6.25 106,-5.25 C103.75,-4.25 102,-1 102.5,-3.25 C103,-5.5 107,-7 106.25,-9.5 C105.5,-12 103.25,-14 102.25,-14.5z"></path></g></g><g style="display: none;" transform="matrix(-0.4945765435695648,-0.3396970331668854,0.3396970331668854,-0.4945765435695648,535.77001953125,409.3323059082031)" opacity="1"><g opacity="1" transform="matrix(1,0,0,1,0,0)"><path fill="rgb(255,255,255)" fill-opacity="1" d=" M132,-114 C129.75,-116.25 126,-110.5 124,-107.75 C122,-105 123,-103 120,-95.5 C117,-88 119.25,-86 123,-86.25 C126.75,-86.5 132.25,-92.5 132.5,-96.75 C132.75,-101 134.25,-111.75 132,-114z"></path></g></g><g style="display: none;" transform="matrix(0.8238750100135803,-0.3148873746395111,0.3148873746395111,0.8238750100135803,346.4616394042969,455.7345275878906)" opacity="1"><g opacity="1" transform="matrix(1,0,0,1,0,0)"><path fill="rgb(112,255,129)" fill-opacity="1" d=" M102.25,-14.5 C101.25,-15 99.5,-11.75 98.5,-10.5 C97.5,-9.25 96,-3.25 96,0.25 C96,3.75 99.25,3.25 101.5,3.5 C103.75,3.75 104.5,8.5 103.75,11 C103,13.5 107.75,10.75 110,7 C110.9280014038086,5.453999996185303 108.5,3.5 108.75,-3 C108.81999969482422,-4.818999767303467 108.25,-6.25 106,-5.25 C103.75,-4.25 102,-1 102.5,-3.25 C103,-5.5 107,-7 106.25,-9.5 C105.5,-12 103.25,-14 102.25,-14.5z"></path></g></g><g style="display: none;" transform="matrix(-0.06271708011627197,-0.5967131853103638,0.5967131853103638,-0.06271708011627197,441.7313232421875,215.2063751220703)" opacity="1"><g opacity="1" transform="matrix(1,0,0,1,-209.75,-80.25)"><path fill="rgb(255,255,255)" fill-opacity="1" d=" M4.621204766542977e-16,-7.546999931335449 C4.621204766542977e-16,-7.546999931335449 2.2177138328552246,-3.0524210929870605 2.2177138328552246,-3.0524210929870605 C2.2177138328552246,-3.0524210929870605 7.177623748779297,-2.332151174545288 7.177623748779297,-2.332151174545288 C7.177623748779297,-2.332151174545288 3.588336229324341,1.1659210920333862 3.588336229324341,1.1659210920333862 C3.588336229324341,1.1659210920333862 4.4360151290893555,6.105651378631592 4.4360151290893555,6.105651378631592 C4.4360151290893555,6.105651378631592 2.310296127921497e-16,3.7730000019073486 2.310296127921497e-16,3.7730000019073486 C2.310296127921497e-16,3.7730000019073486 -4.4360151290893555,6.105651378631592 -4.4360151290893555,6.105651378631592 C-4.4360151290893555,6.105651378631592 -3.588336229324341,1.1659210920333862 -3.588336229324341,1.1659210920333862 C-3.588336229324341,1.1659210920333862 -7.177623748779297,-2.332151174545288 -7.177623748779297,-2.332151174545288 C-7.177623748779297,-2.332151174545288 -2.2177138328552246,-3.0524210929870605 -2.2177138328552246,-3.0524210929870605 C-2.2177138328552246,-3.0524210929870605 4.621204766542977e-16,-7.546999931335449 4.621204766542977e-16,-7.546999931335449z"></path></g></g><g style="display: none;" transform="matrix(0.6000000238418579,0,0,0.6000000238418579,-94.05583190917969,384.0592041015625)" opacity="1"><g opacity="1" transform="matrix(1,0,0,1,159.09300231933594,-46.43199920654297)"><path fill="rgb(255,255,255)" fill-opacity="1" d=" M0,-4.550000190734863 C2.5111451148986816,-4.550000190734863 4.550000190734863,-2.5111451148986816 4.550000190734863,0 C4.550000190734863,2.5111451148986816 2.5111451148986816,4.550000190734863 0,4.550000190734863 C-2.5111451148986816,4.550000190734863 -4.550000190734863,2.5111451148986816 -4.550000190734863,0 C-4.550000190734863,-2.5111451148986816 -2.5111451148986816,-4.550000190734863 0,-4.550000190734863z"></path></g></g><g style="display: none;" transform="matrix(0,-0.6000000238418579,0.6000000238418579,0,465.95001220703125,191.9499969482422)" opacity="1"><g opacity="1" transform="matrix(1,0,0,1,-209.75,-80.25)"><path fill="rgb(255,255,255)" fill-opacity="1" d=" M4.621204766542977e-16,-7.546999931335449 C4.621204766542977e-16,-7.546999931335449 2.2177138328552246,-3.0524210929870605 2.2177138328552246,-3.0524210929870605 C2.2177138328552246,-3.0524210929870605 7.177623748779297,-2.332151174545288 7.177623748779297,-2.332151174545288 C7.177623748779297,-2.332151174545288 3.588336229324341,1.1659210920333862 3.588336229324341,1.1659210920333862 C3.588336229324341,1.1659210920333862 4.4360151290893555,6.105651378631592 4.4360151290893555,6.105651378631592 C4.4360151290893555,6.105651378631592 2.310296127921497e-16,3.7730000019073486 2.310296127921497e-16,3.7730000019073486 C2.310296127921497e-16,3.7730000019073486 -4.4360151290893555,6.105651378631592 -4.4360151290893555,6.105651378631592 C-4.4360151290893555,6.105651378631592 -3.588336229324341,1.1659210920333862 -3.588336229324341,1.1659210920333862 C-3.588336229324341,1.1659210920333862 -7.177623748779297,-2.332151174545288 -7.177623748779297,-2.332151174545288 C-7.177623748779297,-2.332151174545288 -2.2177138328552246,-3.0524210929870605 -2.2177138328552246,-3.0524210929870605 C-2.2177138328552246,-3.0524210929870605 4.621204766542977e-16,-7.546999931335449 4.621204766542977e-16,-7.546999931335449z"></path></g></g><g style="display: none;" transform="matrix(0.9206861853599548,0,0,0.9206861853599548,295.56024169921875,2.334606885910034)" opacity="0.0053571428577893695"><g opacity="1" transform="matrix(1,0,0,1,-29.5,37.5)"><path fill="rgb(255,255,255)" fill-opacity="1" d=" M0,-23.106000900268555 C-12.76099967956543,-23.106000900268555 -23.106000900268555,-12.76099967956543 -23.106000900268555,0 C-23.106000900268555,12.76099967956543 -12.76099967956543,23.106000900268555 0,23.106000900268555 C12.76099967956543,23.106000900268555 23.106000900268555,12.76099967956543 23.106000900268555,0 C23.106000900268555,-12.76099967956543 12.76099967956543,-23.106000900268555 0,-23.106000900268555z"></path></g></g><g style="display: none;" transform="matrix(1.1013060808181763,0,0,1.1013060808181763,300.8885192871094,-4.348330974578857)" opacity="0.011516666667370145"><g opacity="1" transform="matrix(1,0,0,1,-29.5,37.5)"><path stroke-linecap="butt" stroke-linejoin="miter" fill-opacity="0" stroke-miterlimit="4" stroke="rgb(255,255,255)" stroke-opacity="1" stroke-width="4" d=" M0,-23.106000900268555 C-12.76099967956543,-23.106000900268555 -23.106000900268555,-12.76099967956543 -23.106000900268555,0 C-23.106000900268555,12.76099967956543 -12.76099967956543,23.106000900268555 0,23.106000900268555 C12.76099967956543,23.106000900268555 23.106000900268555,12.76099967956543 23.106000900268555,0 C23.106000900268555,-12.76099967956543 12.76099967956543,-23.106000900268555 0,-23.106000900268555z"></path></g></g><g style="display: block;" transform="matrix(0.611207127571106,-2.5312533378601074,2.5312533378601074,0.611207127571106,920.6395263671875,-75.84565734863281)" opacity="1"><g opacity="1" transform="matrix(1.090000033378601,0,0,1.090000033378601,0,0)"><path fill="rgb(112,255,129)" fill-opacity="1" d=" M-209.5,-105.25 C-210.25,-105.375 -210.31300354003906,-103.81199645996094 -210.68800354003906,-103.81199645996094 C-211.06300354003906,-103.81199645996094 -211.68699645996094,-103.18699645996094 -211.375,-102.81199645996094 C-211.06300354003906,-102.43699645996094 -210.25,-102 -209.81199645996094,-102.375 C-209.37399291992188,-102.75 -208.81199645996094,-102.3759994506836 -208.5,-102.93800354003906 C-208.18800354003906,-103.5 -208.75,-103.81300354003906 -208.68800354003906,-104.375 C-208.62600708007812,-104.93699645996094 -208.75,-105.125 -209.5,-105.25z"></path></g></g><g style="display: block;" transform="matrix(2.6040000915527344,0,0,2.6040000915527344,1232.5787353515625,612.1027221679688)" opacity="1"><g opacity="1" transform="matrix(1.090000033378601,0,0,1.090000033378601,0,0)"><path fill="rgb(112,255,129)" fill-opacity="1" d=" M-209.5919952392578,-104.57599639892578 C-210.3419952392578,-104.70099639892578 -210.81500244140625,-104.45600128173828 -211.0570068359375,-104.16899871826172 C-211.70799255371094,-103.39700317382812 -211.68699645996094,-103.18699645996094 -211.375,-102.81199645996094 C-211.06300354003906,-102.43699645996094 -210.78399658203125,-102.06600189208984 -210.38099670410156,-102.2300033569336 C-209.97799682617188,-102.39399719238281 -209.2220001220703,-102.177001953125 -208.91000366210938,-102.73899841308594 C-208.59800720214844,-103.3010025024414 -208.89500427246094,-103.36399841308594 -208.83299255371094,-103.9260025024414 C-208.8159942626953,-104.24299621582031 -208.8419952392578,-104.45099639892578 -209.5919952392578,-104.57599639892578z"></path></g></g><g style="display: block;" transform="matrix(0.8820000290870667,0,0,0.8820000290870667,356.80633544921875,196.83746337890625)" opacity="1"><g opacity="1" transform="matrix(1,0,0,1,0,0)"><path fill="rgb(255,255,255)" fill-opacity="1" d=" M102.25,-14.5 C101.25,-15 99.5,-11.75 98.5,-10.5 C97.5,-9.25 96,-3.25 96,0.25 C96,3.75 99.25,3.25 101.5,3.5 C103.75,3.75 104.5,8.5 103.75,11 C103,13.5 107.75,10.75 110,7 C110.9280014038086,5.453999996185303 108.5,3.5 108.75,-3 C108.81999969482422,-4.818999767303467 108.25,-6.25 106,-5.25 C103.75,-4.25 102,-1 102.5,-3.25 C103,-5.5 107,-7 106.25,-9.5 C105.5,-12 103.25,-14 102.25,-14.5z"></path></g></g><g style="display: block;" transform="matrix(-0.5486087799072266,-0.24295777082443237,0.24295777082443237,-0.5486087799072266,632.0294189453125,308.76611328125)" opacity="1"><g opacity="1" transform="matrix(1,0,0,1,0,0)"><path fill="rgb(255,255,255)" fill-opacity="1" d=" M132,-114 C129.75,-116.25 126,-110.5 124,-107.75 C122,-105 123,-103 120,-95.5 C117,-88 119.25,-86 123,-86.25 C126.75,-86.5 132.25,-92.5 132.5,-96.75 C132.75,-101 134.25,-111.75 132,-114z"></path></g></g><g style="display: block;" transform="matrix(-0.4932347536087036,-0.3416423499584198,0.3416423499584198,-0.4932347536087036,520.5862426757812,323.6421813964844)" opacity="1"><g opacity="1" transform="matrix(1,0,0,1,0,0)"><path fill="rgb(112,255,129)" fill-opacity="1" d=" M39,-66.5 C28.351999282836914,-72.23300170898438 31.5,-64.5 32,-61.5 C32.5,-58.5 32.5,-51.5 35.5,-51.5 C38.5,-51.5 45.5,-51.5 47,-53 C48.5,-54.5 45.5,-63 39,-66.5z"></path></g></g><g style="display: block;" transform="matrix(0.13158728182315826,-0.33508923649787903,0.33508923649787903,0.13158728182315826,634.0899658203125,341.0495910644531)" opacity="1"><g opacity="1" transform="matrix(1,0,0,1,0,0)"><path fill="rgb(112,255,129)" fill-opacity="1" d=" M39,-66.5 C28.351999282836914,-72.23300170898438 31.5,-64.5 32,-61.5 C32.5,-58.5 32.5,-51.5 35.5,-51.5 C38.5,-51.5 45.5,-51.5 47,-53 C48.5,-54.5 45.5,-63 39,-66.5z"></path></g></g><g style="display: block;" transform="matrix(0.6000000238418579,0,0,0.6000000238418579,293.75872802734375,341.2658996582031)" opacity="1"><g opacity="1" transform="matrix(1,0,0,1,226.0279998779297,-88.72200012207031)"><path fill="rgb(112,255,129)" fill-opacity="1" d=" M0,-9.050000190734863 C4.99469518661499,-9.050000190734863 9.050000190734863,-4.99469518661499 9.050000190734863,0 C9.050000190734863,4.99469518661499 4.99469518661499,9.050000190734863 0,9.050000190734863 C-4.99469518661499,9.050000190734863 -9.050000190734863,4.99469518661499 -9.050000190734863,0 C-9.050000190734863,-4.99469518661499 -4.99469518661499,-9.050000190734863 0,-9.050000190734863z"></path></g></g><g style="display: block;" transform="matrix(-0.578071117401123,-0.16072899103164673,0.16072899103164673,-0.578071117401123,354.52703857421875,211.41156005859375)" opacity="1"><g opacity="1" transform="matrix(1,0,0,1,-209.75,-80.25)"><path fill="rgb(255,255,255)" fill-opacity="1" d=" M4.621204766542977e-16,-7.546999931335449 C4.621204766542977e-16,-7.546999931335449 2.2177138328552246,-3.0524210929870605 2.2177138328552246,-3.0524210929870605 C2.2177138328552246,-3.0524210929870605 7.177623748779297,-2.332151174545288 7.177623748779297,-2.332151174545288 C7.177623748779297,-2.332151174545288 3.588336229324341,1.1659210920333862 3.588336229324341,1.1659210920333862 C3.588336229324341,1.1659210920333862 4.4360151290893555,6.105651378631592 4.4360151290893555,6.105651378631592 C4.4360151290893555,6.105651378631592 2.310296127921497e-16,3.7730000019073486 2.310296127921497e-16,3.7730000019073486 C2.310296127921497e-16,3.7730000019073486 -4.4360151290893555,6.105651378631592 -4.4360151290893555,6.105651378631592 C-4.4360151290893555,6.105651378631592 -3.588336229324341,1.1659210920333862 -3.588336229324341,1.1659210920333862 C-3.588336229324341,1.1659210920333862 -7.177623748779297,-2.332151174545288 -7.177623748779297,-2.332151174545288 C-7.177623748779297,-2.332151174545288 -2.2177138328552246,-3.0524210929870605 -2.2177138328552246,-3.0524210929870605 C-2.2177138328552246,-3.0524210929870605 4.621204766542977e-16,-7.546999931335449 4.621204766542977e-16,-7.546999931335449z"></path></g></g><g style="display: block;" transform="matrix(-0.5743433833122253,0.173579141497612,-0.173579141497612,-0.5743433833122253,458.81591796875,250.1547393798828)" opacity="1"><g opacity="1" transform="matrix(1,0,0,1,-209.75,-80.25)"><path fill="rgb(112,255,129)" fill-opacity="1" d=" M4.621204766542977e-16,-7.546999931335449 C4.621204766542977e-16,-7.546999931335449 2.2177138328552246,-3.0524210929870605 2.2177138328552246,-3.0524210929870605 C2.2177138328552246,-3.0524210929870605 7.177623748779297,-2.332151174545288 7.177623748779297,-2.332151174545288 C7.177623748779297,-2.332151174545288 3.588336229324341,1.1659210920333862 3.588336229324341,1.1659210920333862 C3.588336229324341,1.1659210920333862 4.4360151290893555,6.105651378631592 4.4360151290893555,6.105651378631592 C4.4360151290893555,6.105651378631592 2.310296127921497e-16,3.7730000019073486 2.310296127921497e-16,3.7730000019073486 C2.310296127921497e-16,3.7730000019073486 -4.4360151290893555,6.105651378631592 -4.4360151290893555,6.105651378631592 C-4.4360151290893555,6.105651378631592 -3.588336229324341,1.1659210920333862 -3.588336229324341,1.1659210920333862 C-3.588336229324341,1.1659210920333862 -7.177623748779297,-2.332151174545288 -7.177623748779297,-2.332151174545288 C-7.177623748779297,-2.332151174545288 -2.2177138328552246,-3.0524210929870605 -2.2177138328552246,-3.0524210929870605 C-2.2177138328552246,-3.0524210929870605 4.621204766542977e-16,-7.546999931335449 4.621204766542977e-16,-7.546999931335449z"></path></g></g><g style="display: block;" transform="matrix(-0.04274875298142433,-0.5984752178192139,0.5984752178192139,-0.04274875298142433,506.2544250488281,135.2578887939453)" opacity="1"><g opacity="1" transform="matrix(1.4800000190734863,0,0,1.4800000190734863,-209.75,-80.25)"><path fill="rgb(255,255,255)" fill-opacity="1" d=" M4.621204766542977e-16,-7.546999931335449 C4.621204766542977e-16,-7.546999931335449 1.8865000009536743,-3.2675137519836426 1.8865000009536743,-3.2675137519836426 C1.8865000009536743,-3.2675137519836426 6.53589391708374,-3.7734999656677246 6.53589391708374,-3.7734999656677246 C6.53589391708374,-3.7734999656677246 3.7730000019073486,-8.377742948056596e-16 3.7730000019073486,-8.377742948056596e-16 C3.7730000019073486,-8.377742948056596e-16 6.53589391708374,3.7734999656677246 6.53589391708374,3.7734999656677246 C6.53589391708374,3.7734999656677246 1.8865000009536743,3.2675137519836426 1.8865000009536743,3.2675137519836426 C1.8865000009536743,3.2675137519836426 3.813661659959975e-15,7.546999931335449 3.813661659959975e-15,7.546999931335449 C3.813661659959975e-15,7.546999931335449 -1.8865000009536743,3.2675137519836426 -1.8865000009536743,3.2675137519836426 C-1.8865000009536743,3.2675137519836426 -6.53589391708374,3.7734999656677246 -6.53589391708374,3.7734999656677246 C-6.53589391708374,3.7734999656677246 -3.7730000019073486,3.813156404806938e-15 -3.7730000019073486,3.813156404806938e-15 C-3.7730000019073486,3.813156404806938e-15 -6.53589391708374,-3.7734999656677246 -6.53589391708374,-3.7734999656677246 C-6.53589391708374,-3.7734999656677246 -1.8865000009536743,-3.2675137519836426 -1.8865000009536743,-3.2675137519836426 C-1.8865000009536743,-3.2675137519836426 4.621204766542977e-16,-7.546999931335449 4.621204766542977e-16,-7.546999931335449z"></path></g></g><g style="display: block;" transform="matrix(0.2993908226490021,-0.5199665427207947,0.5199665427207947,0.2993908226490021,683.9391479492188,210.57589721679688)" opacity="1"><g opacity="1" transform="matrix(1.4800000190734863,0,0,1.4800000190734863,-209.75,-80.25)"><path fill="rgb(112,255,129)" fill-opacity="1" d=" M4.621204766542977e-16,-7.546999931335449 C4.621204766542977e-16,-7.546999931335449 1.8865000009536743,-3.2675137519836426 1.8865000009536743,-3.2675137519836426 C1.8865000009536743,-3.2675137519836426 6.53589391708374,-3.7734999656677246 6.53589391708374,-3.7734999656677246 C6.53589391708374,-3.7734999656677246 3.7730000019073486,-8.377742948056596e-16 3.7730000019073486,-8.377742948056596e-16 C3.7730000019073486,-8.377742948056596e-16 6.53589391708374,3.7734999656677246 6.53589391708374,3.7734999656677246 C6.53589391708374,3.7734999656677246 1.8865000009536743,3.2675137519836426 1.8865000009536743,3.2675137519836426 C1.8865000009536743,3.2675137519836426 3.813661659959975e-15,7.546999931335449 3.813661659959975e-15,7.546999931335449 C3.813661659959975e-15,7.546999931335449 -1.8865000009536743,3.2675137519836426 -1.8865000009536743,3.2675137519836426 C-1.8865000009536743,3.2675137519836426 -6.53589391708374,3.7734999656677246 -6.53589391708374,3.7734999656677246 C-6.53589391708374,3.7734999656677246 -3.7730000019073486,3.813156404806938e-15 -3.7730000019073486,3.813156404806938e-15 C-3.7730000019073486,3.813156404806938e-15 -6.53589391708374,-3.7734999656677246 -6.53589391708374,-3.7734999656677246 C-6.53589391708374,-3.7734999656677246 -1.8865000009536743,-3.2675137519836426 -1.8865000009536743,-3.2675137519836426 C-1.8865000009536743,-3.2675137519836426 4.621204766542977e-16,-7.546999931335449 4.621204766542977e-16,-7.546999931335449z"></path></g></g><g style="display: block;" transform="matrix(-0.9543692469596863,2.4228076934814453,-2.4228076934814453,-0.9543692469596863,296.7129821777344,721.326904296875)" opacity="1"><g opacity="1" transform="matrix(1.090000033378601,0,0,1.090000033378601,0,0)"><path fill="rgb(255,255,255)" fill-opacity="1" d=" M-209.5,-105.25 C-210.25,-105.375 -210.31300354003906,-103.81199645996094 -210.68800354003906,-103.81199645996094 C-211.06300354003906,-103.81199645996094 -211.68699645996094,-103.18699645996094 -211.375,-102.81199645996094 C-211.06300354003906,-102.43699645996094 -210.25,-102 -209.81199645996094,-102.375 C-209.37399291992188,-102.75 -208.81199645996094,-102.3759994506836 -208.5,-102.93800354003906 C-208.18800354003906,-103.5 -208.75,-103.81300354003906 -208.68800354003906,-104.375 C-208.62600708007812,-104.93699645996094 -208.75,-105.125 -209.5,-105.25z"></path></g></g><g style="display: block;" transform="matrix(2.3788726329803467,-1.0591423511505127,1.0591423511505127,2.3788726329803467,1034.79931640625,300.9195861816406)" opacity="1"><g opacity="1" transform="matrix(1.090000033378601,0,0,1.090000033378601,0,0)"><path fill="rgb(255,255,255)" fill-opacity="1" d=" M-209.5919952392578,-104.57599639892578 C-210.3419952392578,-104.70099639892578 -210.81500244140625,-104.45600128173828 -211.0570068359375,-104.16899871826172 C-211.70799255371094,-103.39700317382812 -211.68699645996094,-103.18699645996094 -211.375,-102.81199645996094 C-211.06300354003906,-102.43699645996094 -210.78399658203125,-102.06600189208984 -210.38099670410156,-102.2300033569336 C-209.97799682617188,-102.39399719238281 -209.2220001220703,-102.177001953125 -208.91000366210938,-102.73899841308594 C-208.59800720214844,-103.3010025024414 -208.89500427246094,-103.36399841308594 -208.83299255371094,-103.9260025024414 C-208.8159942626953,-104.24299621582031 -208.8419952392578,-104.45099639892578 -209.5919952392578,-104.57599639892578z"></path></g></g><g style="display: block;" transform="matrix(0.6000000238418579,0,0,0.6000000238418579,460.8112487792969,314.334716796875)" opacity="1"><g opacity="1" transform="matrix(1,0,0,1,159.09300231933594,-46.43199920654297)"><path fill="rgb(255,255,255)" fill-opacity="1" d=" M0,-4.550000190734863 C2.5111451148986816,-4.550000190734863 4.550000190734863,-2.5111451148986816 4.550000190734863,0 C4.550000190734863,2.5111451148986816 2.5111451148986816,4.550000190734863 0,4.550000190734863 C-2.5111451148986816,4.550000190734863 -4.550000190734863,2.5111451148986816 -4.550000190734863,0 C-4.550000190734863,-2.5111451148986816 -2.5111451148986816,-4.550000190734863 0,-4.550000190734863z"></path></g></g><g style="display: block;" transform="matrix(0.5127211809158325,0.3116360008716583,-0.3116360008716583,0.5127211809158325,602.3937377929688,374.1523742675781)" opacity="1"><g opacity="1" transform="matrix(1,0,0,1,-209.75,-80.25)"><path fill="rgb(112,255,129)" fill-opacity="1" d=" M4.621204766542977e-16,-7.546999931335449 C4.621204766542977e-16,-7.546999931335449 2.2177138328552246,-3.0524210929870605 2.2177138328552246,-3.0524210929870605 C2.2177138328552246,-3.0524210929870605 7.177623748779297,-2.332151174545288 7.177623748779297,-2.332151174545288 C7.177623748779297,-2.332151174545288 3.588336229324341,1.1659210920333862 3.588336229324341,1.1659210920333862 C3.588336229324341,1.1659210920333862 4.4360151290893555,6.105651378631592 4.4360151290893555,6.105651378631592 C4.4360151290893555,6.105651378631592 2.310296127921497e-16,3.7730000019073486 2.310296127921497e-16,3.7730000019073486 C2.310296127921497e-16,3.7730000019073486 -4.4360151290893555,6.105651378631592 -4.4360151290893555,6.105651378631592 C-4.4360151290893555,6.105651378631592 -3.588336229324341,1.1659210920333862 -3.588336229324341,1.1659210920333862 C-3.588336229324341,1.1659210920333862 -7.177623748779297,-2.332151174545288 -7.177623748779297,-2.332151174545288 C-7.177623748779297,-2.332151174545288 -2.2177138328552246,-3.0524210929870605 -2.2177138328552246,-3.0524210929870605 C-2.2177138328552246,-3.0524210929870605 4.621204766542977e-16,-7.546999931335449 4.621204766542977e-16,-7.546999931335449z"></path></g></g><g style="display: block;" transform="matrix(0.43800002336502075,0,0,0.43800002336502075,128.6195526123047,303.2859191894531)" opacity="1"><g opacity="1" transform="matrix(1,0,0,1,226.0279998779297,-88.72200012207031)"><path fill="rgb(112,255,129)" fill-opacity="1" d=" M0,-9.050000190734863 C4.99469518661499,-9.050000190734863 9.050000190734863,-4.99469518661499 9.050000190734863,0 C9.050000190734863,4.99469518661499 4.99469518661499,9.050000190734863 0,9.050000190734863 C-4.99469518661499,9.050000190734863 -9.050000190734863,4.99469518661499 -9.050000190734863,0 C-9.050000190734863,-4.99469518661499 -4.99469518661499,-9.050000190734863 0,-9.050000190734863z"></path></g></g><g style="display: block;" transform="matrix(0.2322736233472824,0.5532169342041016,-0.5532169342041016,0.2322736233472824,275.4122009277344,417.1788635253906)" opacity="1"><g opacity="1" transform="matrix(1.4800000190734863,0,0,1.4800000190734863,-209.75,-80.25)"><path fill="rgb(112,255,129)" fill-opacity="1" d=" M4.621204766542977e-16,-7.546999931335449 C4.621204766542977e-16,-7.546999931335449 1.8865000009536743,-3.2675137519836426 1.8865000009536743,-3.2675137519836426 C1.8865000009536743,-3.2675137519836426 6.53589391708374,-3.7734999656677246 6.53589391708374,-3.7734999656677246 C6.53589391708374,-3.7734999656677246 3.7730000019073486,-8.377742948056596e-16 3.7730000019073486,-8.377742948056596e-16 C3.7730000019073486,-8.377742948056596e-16 6.53589391708374,3.7734999656677246 6.53589391708374,3.7734999656677246 C6.53589391708374,3.7734999656677246 1.8865000009536743,3.2675137519836426 1.8865000009536743,3.2675137519836426 C1.8865000009536743,3.2675137519836426 3.813661659959975e-15,7.546999931335449 3.813661659959975e-15,7.546999931335449 C3.813661659959975e-15,7.546999931335449 -1.8865000009536743,3.2675137519836426 -1.8865000009536743,3.2675137519836426 C-1.8865000009536743,3.2675137519836426 -6.53589391708374,3.7734999656677246 -6.53589391708374,3.7734999656677246 C-6.53589391708374,3.7734999656677246 -3.7730000019073486,3.813156404806938e-15 -3.7730000019073486,3.813156404806938e-15 C-3.7730000019073486,3.813156404806938e-15 -6.53589391708374,-3.7734999656677246 -6.53589391708374,-3.7734999656677246 C-6.53589391708374,-3.7734999656677246 -1.8865000009536743,-3.2675137519836426 -1.8865000009536743,-3.2675137519836426 C-1.8865000009536743,-3.2675137519836426 4.621204766542977e-16,-7.546999931335449 4.621204766542977e-16,-7.546999931335449z"></path></g></g><g style="display: block;" transform="matrix(-0.7781583070755005,-0.4152032136917114,0.4152032136917114,-0.7781583070755005,373.1470642089844,341.0202941894531)" opacity="1"><g opacity="1" transform="matrix(1,0,0,1,0,0)"><path fill="rgb(255,255,255)" fill-opacity="1" d=" M102.25,-14.5 C101.25,-15 99.5,-11.75 98.5,-10.5 C97.5,-9.25 96,-3.25 96,0.25 C96,3.75 99.25,3.25 101.5,3.5 C103.75,3.75 104.5,8.5 103.75,11 C103,13.5 107.75,10.75 110,7 C110.9280014038086,5.453999996185303 108.5,3.5 108.75,-3 C108.81999969482422,-4.818999767303467 108.25,-6.25 106,-5.25 C103.75,-4.25 102,-1 102.5,-3.25 C103,-5.5 107,-7 106.25,-9.5 C105.5,-12 103.25,-14 102.25,-14.5z"></path></g></g><g style="display: block;" transform="matrix(-0.5865519046783447,0.12632060050964355,-0.12632060050964355,-0.5865519046783447,755.076904296875,215.18460083007812)" opacity="1"><g opacity="1" transform="matrix(1,0,0,1,0,0)"><path fill="rgb(255,255,255)" fill-opacity="1" d=" M132,-114 C129.75,-116.25 126,-110.5 124,-107.75 C122,-105 123,-103 120,-95.5 C117,-88 119.25,-86 123,-86.25 C126.75,-86.5 132.25,-92.5 132.5,-96.75 C132.75,-101 134.25,-111.75 132,-114z"></path></g></g><g style="display: block;" transform="matrix(-0.020600682124495506,-0.8817594647407532,0.8817594647407532,-0.020600682124495506,702.260498046875,382.44207763671875)" opacity="1"><g opacity="1" transform="matrix(1,0,0,1,0,0)"><path fill="rgb(112,255,129)" fill-opacity="1" d=" M102.25,-14.5 C101.25,-15 99.5,-11.75 98.5,-10.5 C97.5,-9.25 96,-3.25 96,0.25 C96,3.75 99.25,3.25 101.5,3.5 C103.75,3.75 104.5,8.5 103.75,11 C103,13.5 107.75,10.75 110,7 C110.9280014038086,5.453999996185303 108.5,3.5 108.75,-3 C108.81999969482422,-4.818999767303467 108.25,-6.25 106,-5.25 C103.75,-4.25 102,-1 102.5,-3.25 C103,-5.5 107,-7 106.25,-9.5 C105.5,-12 103.25,-14 102.25,-14.5z"></path></g></g><g style="display: block;" transform="matrix(-0.06271708011627197,-0.5967131853103638,0.5967131853103638,-0.06271708011627197,700.9428100585938,131.04612731933594)" opacity="1"><g opacity="1" transform="matrix(1,0,0,1,-209.75,-80.25)"><path fill="rgb(255,255,255)" fill-opacity="1" d=" M4.621204766542977e-16,-7.546999931335449 C4.621204766542977e-16,-7.546999931335449 2.2177138328552246,-3.0524210929870605 2.2177138328552246,-3.0524210929870605 C2.2177138328552246,-3.0524210929870605 7.177623748779297,-2.332151174545288 7.177623748779297,-2.332151174545288 C7.177623748779297,-2.332151174545288 3.588336229324341,1.1659210920333862 3.588336229324341,1.1659210920333862 C3.588336229324341,1.1659210920333862 4.4360151290893555,6.105651378631592 4.4360151290893555,6.105651378631592 C4.4360151290893555,6.105651378631592 2.310296127921497e-16,3.7730000019073486 2.310296127921497e-16,3.7730000019073486 C2.310296127921497e-16,3.7730000019073486 -4.4360151290893555,6.105651378631592 -4.4360151290893555,6.105651378631592 C-4.4360151290893555,6.105651378631592 -3.588336229324341,1.1659210920333862 -3.588336229324341,1.1659210920333862 C-3.588336229324341,1.1659210920333862 -7.177623748779297,-2.332151174545288 -7.177623748779297,-2.332151174545288 C-7.177623748779297,-2.332151174545288 -2.2177138328552246,-3.0524210929870605 -2.2177138328552246,-3.0524210929870605 C-2.2177138328552246,-3.0524210929870605 4.621204766542977e-16,-7.546999931335449 4.621204766542977e-16,-7.546999931335449z"></path></g></g><g style="display: block;" transform="matrix(0.6000000238418579,0,0,0.6000000238418579,212.78746032714844,254.83370971679688)" opacity="1"><g opacity="1" transform="matrix(1,0,0,1,159.09300231933594,-46.43199920654297)"><path fill="rgb(255,255,255)" fill-opacity="1" d=" M0,-4.550000190734863 C2.5111451148986816,-4.550000190734863 4.550000190734863,-2.5111451148986816 4.550000190734863,0 C4.550000190734863,2.5111451148986816 2.5111451148986816,4.550000190734863 0,4.550000190734863 C-2.5111451148986816,4.550000190734863 -4.550000190734863,2.5111451148986816 -4.550000190734863,0 C-4.550000190734863,-2.5111451148986816 -2.5111451148986816,-4.550000190734863 0,-4.550000190734863z"></path></g></g><g style="display: block;" transform="matrix(0,-0.6000000238418579,0.6000000238418579,0,718.7091064453125,103.08277130126953)" opacity="1"><g opacity="1" transform="matrix(1,0,0,1,-209.75,-80.25)"><path fill="rgb(255,255,255)" fill-opacity="1" d=" M4.621204766542977e-16,-7.546999931335449 C4.621204766542977e-16,-7.546999931335449 2.2177138328552246,-3.0524210929870605 2.2177138328552246,-3.0524210929870605 C2.2177138328552246,-3.0524210929870605 7.177623748779297,-2.332151174545288 7.177623748779297,-2.332151174545288 C7.177623748779297,-2.332151174545288 3.588336229324341,1.1659210920333862 3.588336229324341,1.1659210920333862 C3.588336229324341,1.1659210920333862 4.4360151290893555,6.105651378631592 4.4360151290893555,6.105651378631592 C4.4360151290893555,6.105651378631592 2.310296127921497e-16,3.7730000019073486 2.310296127921497e-16,3.7730000019073486 C2.310296127921497e-16,3.7730000019073486 -4.4360151290893555,6.105651378631592 -4.4360151290893555,6.105651378631592 C-4.4360151290893555,6.105651378631592 -3.588336229324341,1.1659210920333862 -3.588336229324341,1.1659210920333862 C-3.588336229324341,1.1659210920333862 -7.177623748779297,-2.332151174545288 -7.177623748779297,-2.332151174545288 C-7.177623748779297,-2.332151174545288 -2.2177138328552246,-3.0524210929870605 -2.2177138328552246,-3.0524210929870605 C-2.2177138328552246,-3.0524210929870605 4.621204766542977e-16,-7.546999931335449 4.621204766542977e-16,-7.546999931335449z"></path></g></g><g style="display: none;" transform="matrix(0.9130398631095886,0,0,0.9130398631095886,564.3346557617188,4.617523193359375)" opacity="0.027385714286921825"><g opacity="1" transform="matrix(1,0,0,1,-29.5,37.5)"><path fill="rgb(255,255,255)" fill-opacity="1" d=" M0,-23.106000900268555 C-12.76099967956543,-23.106000900268555 -23.106000900268555,-12.76099967956543 -23.106000900268555,0 C-23.106000900268555,12.76099967956543 -12.76099967956543,23.106000900268555 0,23.106000900268555 C12.76099967956543,23.106000900268555 23.106000900268555,12.76099967956543 23.106000900268555,0 C23.106000900268555,-12.76099967956543 12.76099967956543,-23.106000900268555 0,-23.106000900268555z"></path></g></g><g style="display: none;" transform="matrix(1.0973089933395386,0,0,1.0973089933395386,569.7706298828125,-2.200436592102051)" opacity="0.023666666667046032"><g opacity="1" transform="matrix(1,0,0,1,-29.5,37.5)"><path stroke-linecap="butt" stroke-linejoin="miter" fill-opacity="0" stroke-miterlimit="4" stroke="rgb(255,255,255)" stroke-opacity="1" stroke-width="4" d=" M0,-23.106000900268555 C-12.76099967956543,-23.106000900268555 -23.106000900268555,-12.76099967956543 -23.106000900268555,0 C-23.106000900268555,12.76099967956543 -12.76099967956543,23.106000900268555 0,23.106000900268555 C12.76099967956543,23.106000900268555 23.106000900268555,12.76099967956543 23.106000900268555,0 C23.106000900268555,-12.76099967956543 12.76099967956543,-23.106000900268555 0,-23.106000900268555z"></path></g></g><g style="display: block;" transform="matrix(1.7987850904464722,-1.8828672170639038,1.8828672170639038,1.7987850904464722,936.8745727539062,381.62396240234375)" opacity="1"><g opacity="1" transform="matrix(1.090000033378601,0,0,1.090000033378601,0,0)"><path fill="rgb(112,255,129)" fill-opacity="1" d=" M-209.5,-105.25 C-210.25,-105.375 -210.31300354003906,-103.81199645996094 -210.68800354003906,-103.81199645996094 C-211.06300354003906,-103.81199645996094 -211.68699645996094,-103.18699645996094 -211.375,-102.81199645996094 C-211.06300354003906,-102.43699645996094 -210.25,-102 -209.81199645996094,-102.375 C-209.37399291992188,-102.75 -208.81199645996094,-102.3759994506836 -208.5,-102.93800354003906 C-208.18800354003906,-103.5 -208.75,-103.81300354003906 -208.68800354003906,-104.375 C-208.62600708007812,-104.93699645996094 -208.75,-105.125 -209.5,-105.25z"></path></g></g><g style="display: block;" transform="matrix(2.6040000915527344,0,0,2.6040000915527344,1058.019287109375,863.8771362304688)" opacity="1"><g opacity="1" transform="matrix(1.090000033378601,0,0,1.090000033378601,0,0)"><path fill="rgb(112,255,129)" fill-opacity="1" d=" M-209.5919952392578,-104.57599639892578 C-210.3419952392578,-104.70099639892578 -210.81500244140625,-104.45600128173828 -211.0570068359375,-104.16899871826172 C-211.70799255371094,-103.39700317382812 -211.68699645996094,-103.18699645996094 -211.375,-102.81199645996094 C-211.06300354003906,-102.43699645996094 -210.78399658203125,-102.06600189208984 -210.38099670410156,-102.2300033569336 C-209.97799682617188,-102.39399719238281 -209.2220001220703,-102.177001953125 -208.91000366210938,-102.73899841308594 C-208.59800720214844,-103.3010025024414 -208.89500427246094,-103.36399841308594 -208.83299255371094,-103.9260025024414 C-208.8159942626953,-104.24299621582031 -208.8419952392578,-104.45099639892578 -209.5919952392578,-104.57599639892578z"></path></g></g><g style="display: block;" transform="matrix(0.8820000290870667,0,0,0.8820000290870667,167.36363220214844,452.7788391113281)" opacity="1"><g opacity="1" transform="matrix(1,0,0,1,0,0)"><path fill="rgb(255,255,255)" fill-opacity="1" d=" M102.25,-14.5 C101.25,-15 99.5,-11.75 98.5,-10.5 C97.5,-9.25 96,-3.25 96,0.25 C96,3.75 99.25,3.25 101.5,3.5 C103.75,3.75 104.5,8.5 103.75,11 C103,13.5 107.75,10.75 110,7 C110.9280014038086,5.453999996185303 108.5,3.5 108.75,-3 C108.81999969482422,-4.818999767303467 108.25,-6.25 106,-5.25 C103.75,-4.25 102,-1 102.5,-3.25 C103,-5.5 107,-7 106.25,-9.5 C105.5,-12 103.25,-14 102.25,-14.5z"></path></g></g><g style="display: block;" transform="matrix(-0.38047364354133606,-0.46393945813179016,0.46393945813179016,-0.38047364354133606,449.27294921875,600.2288208007812)" opacity="1"><g opacity="1" transform="matrix(1,0,0,1,0,0)"><path fill="rgb(255,255,255)" fill-opacity="1" d=" M132,-114 C129.75,-116.25 126,-110.5 124,-107.75 C122,-105 123,-103 120,-95.5 C117,-88 119.25,-86 123,-86.25 C126.75,-86.5 132.25,-92.5 132.5,-96.75 C132.75,-101 134.25,-111.75 132,-114z"></path></g></g><g style="display: block;" transform="matrix(-0.25317227840423584,-0.5439704060554504,0.5439704060554504,-0.25317227840423584,333.86956787109375,602.36376953125)" opacity="1"><g opacity="1" transform="matrix(1,0,0,1,0,0)"><path fill="rgb(112,255,129)" fill-opacity="1" d=" M39,-66.5 C28.351999282836914,-72.23300170898438 31.5,-64.5 32,-61.5 C32.5,-58.5 32.5,-51.5 35.5,-51.5 C38.5,-51.5 45.5,-51.5 47,-53 C48.5,-54.5 45.5,-63 39,-66.5z"></path></g></g><g style="display: block;" transform="matrix(0.2759358882904053,-0.23121289908885956,0.23121289908885956,0.2759358882904053,445.5588684082031,594.9476318359375)" opacity="1"><g opacity="1" transform="matrix(1,0,0,1,0,0)"><path fill="rgb(112,255,129)" fill-opacity="1" d=" M39,-66.5 C28.351999282836914,-72.23300170898438 31.5,-64.5 32,-61.5 C32.5,-58.5 32.5,-51.5 35.5,-51.5 C38.5,-51.5 45.5,-51.5 47,-53 C48.5,-54.5 45.5,-63 39,-66.5z"></path></g></g><g style="display: block;" transform="matrix(0.6000000238418579,0,0,0.6000000238418579,108.71417999267578,578.9859619140625)" opacity="1"><g opacity="1" transform="matrix(1,0,0,1,226.0279998779297,-88.72200012207031)"><path fill="rgb(112,255,129)" fill-opacity="1" d=" M0,-9.050000190734863 C4.99469518661499,-9.050000190734863 9.050000190734863,-4.99469518661499 9.050000190734863,0 C9.050000190734863,4.99469518661499 4.99469518661499,9.050000190734863 0,9.050000190734863 C-4.99469518661499,9.050000190734863 -9.050000190734863,4.99469518661499 -9.050000190734863,0 C-9.050000190734863,-4.99469518661499 -4.99469518661499,-9.050000190734863 0,-9.050000190734863z"></path></g></g><g style="display: block;" transform="matrix(-0.4376445412635803,-0.4104476571083069,0.4104476571083069,-0.4376445412635803,215.3117218017578,413.60150146484375)" opacity="1"><g opacity="1" transform="matrix(1,0,0,1,-209.75,-80.25)"><path fill="rgb(255,255,255)" fill-opacity="1" d=" M4.621204766542977e-16,-7.546999931335449 C4.621204766542977e-16,-7.546999931335449 2.2177138328552246,-3.0524210929870605 2.2177138328552246,-3.0524210929870605 C2.2177138328552246,-3.0524210929870605 7.177623748779297,-2.332151174545288 7.177623748779297,-2.332151174545288 C7.177623748779297,-2.332151174545288 3.588336229324341,1.1659210920333862 3.588336229324341,1.1659210920333862 C3.588336229324341,1.1659210920333862 4.4360151290893555,6.105651378631592 4.4360151290893555,6.105651378631592 C4.4360151290893555,6.105651378631592 2.310296127921497e-16,3.7730000019073486 2.310296127921497e-16,3.7730000019073486 C2.310296127921497e-16,3.7730000019073486 -4.4360151290893555,6.105651378631592 -4.4360151290893555,6.105651378631592 C-4.4360151290893555,6.105651378631592 -3.588336229324341,1.1659210920333862 -3.588336229324341,1.1659210920333862 C-3.588336229324341,1.1659210920333862 -7.177623748779297,-2.332151174545288 -7.177623748779297,-2.332151174545288 C-7.177623748779297,-2.332151174545288 -2.2177138328552246,-3.0524210929870605 -2.2177138328552246,-3.0524210929870605 C-2.2177138328552246,-3.0524210929870605 4.621204766542977e-16,-7.546999931335449 4.621204766542977e-16,-7.546999931335449z"></path></g></g><g style="display: block;" transform="matrix(-0.5645259618759155,-0.20324964821338654,0.20324964821338654,-0.5645259618759155,312.9024658203125,415.46429443359375)" opacity="1"><g opacity="1" transform="matrix(1,0,0,1,-209.75,-80.25)"><path fill="rgb(112,255,129)" fill-opacity="1" d=" M4.621204766542977e-16,-7.546999931335449 C4.621204766542977e-16,-7.546999931335449 2.2177138328552246,-3.0524210929870605 2.2177138328552246,-3.0524210929870605 C2.2177138328552246,-3.0524210929870605 7.177623748779297,-2.332151174545288 7.177623748779297,-2.332151174545288 C7.177623748779297,-2.332151174545288 3.588336229324341,1.1659210920333862 3.588336229324341,1.1659210920333862 C3.588336229324341,1.1659210920333862 4.4360151290893555,6.105651378631592 4.4360151290893555,6.105651378631592 C4.4360151290893555,6.105651378631592 2.310296127921497e-16,3.7730000019073486 2.310296127921497e-16,3.7730000019073486 C2.310296127921497e-16,3.7730000019073486 -4.4360151290893555,6.105651378631592 -4.4360151290893555,6.105651378631592 C-4.4360151290893555,6.105651378631592 -3.588336229324341,1.1659210920333862 -3.588336229324341,1.1659210920333862 C-3.588336229324341,1.1659210920333862 -7.177623748779297,-2.332151174545288 -7.177623748779297,-2.332151174545288 C-7.177623748779297,-2.332151174545288 -2.2177138328552246,-3.0524210929870605 -2.2177138328552246,-3.0524210929870605 C-2.2177138328552246,-3.0524210929870605 4.621204766542977e-16,-7.546999931335449 4.621204766542977e-16,-7.546999931335449z"></path></g></g><g style="display: block;" transform="matrix(0.3052535951137543,-0.5165464878082275,0.5165464878082275,0.3052535951137543,385.51422119140625,420.186279296875)" opacity="1"><g opacity="1" transform="matrix(1.4800000190734863,0,0,1.4800000190734863,-209.75,-80.25)"><path fill="rgb(255,255,255)" fill-opacity="1" d=" M4.621204766542977e-16,-7.546999931335449 C4.621204766542977e-16,-7.546999931335449 1.8865000009536743,-3.2675137519836426 1.8865000009536743,-3.2675137519836426 C1.8865000009536743,-3.2675137519836426 6.53589391708374,-3.7734999656677246 6.53589391708374,-3.7734999656677246 C6.53589391708374,-3.7734999656677246 3.7730000019073486,-8.377742948056596e-16 3.7730000019073486,-8.377742948056596e-16 C3.7730000019073486,-8.377742948056596e-16 6.53589391708374,3.7734999656677246 6.53589391708374,3.7734999656677246 C6.53589391708374,3.7734999656677246 1.8865000009536743,3.2675137519836426 1.8865000009536743,3.2675137519836426 C1.8865000009536743,3.2675137519836426 3.813661659959975e-15,7.546999931335449 3.813661659959975e-15,7.546999931335449 C3.813661659959975e-15,7.546999931335449 -1.8865000009536743,3.2675137519836426 -1.8865000009536743,3.2675137519836426 C-1.8865000009536743,3.2675137519836426 -6.53589391708374,3.7734999656677246 -6.53589391708374,3.7734999656677246 C-6.53589391708374,3.7734999656677246 -3.7730000019073486,3.813156404806938e-15 -3.7730000019073486,3.813156404806938e-15 C-3.7730000019073486,3.813156404806938e-15 -6.53589391708374,-3.7734999656677246 -6.53589391708374,-3.7734999656677246 C-6.53589391708374,-3.7734999656677246 -1.8865000009536743,-3.2675137519836426 -1.8865000009536743,-3.2675137519836426 C-1.8865000009536743,-3.2675137519836426 4.621204766542977e-16,-7.546999931335449 4.621204766542977e-16,-7.546999931335449z"></path></g></g><g style="display: block;" transform="matrix(0.4832955300807953,-0.35556355118751526,0.35556355118751526,0.4832955300807953,528.6025390625,497.06298828125)" opacity="1"><g opacity="1" transform="matrix(1.4800000190734863,0,0,1.4800000190734863,-209.75,-80.25)"><path fill="rgb(112,255,129)" fill-opacity="1" d=" M4.621204766542977e-16,-7.546999931335449 C4.621204766542977e-16,-7.546999931335449 1.8865000009536743,-3.2675137519836426 1.8865000009536743,-3.2675137519836426 C1.8865000009536743,-3.2675137519836426 6.53589391708374,-3.7734999656677246 6.53589391708374,-3.7734999656677246 C6.53589391708374,-3.7734999656677246 3.7730000019073486,-8.377742948056596e-16 3.7730000019073486,-8.377742948056596e-16 C3.7730000019073486,-8.377742948056596e-16 6.53589391708374,3.7734999656677246 6.53589391708374,3.7734999656677246 C6.53589391708374,3.7734999656677246 1.8865000009536743,3.2675137519836426 1.8865000009536743,3.2675137519836426 C1.8865000009536743,3.2675137519836426 3.813661659959975e-15,7.546999931335449 3.813661659959975e-15,7.546999931335449 C3.813661659959975e-15,7.546999931335449 -1.8865000009536743,3.2675137519836426 -1.8865000009536743,3.2675137519836426 C-1.8865000009536743,3.2675137519836426 -6.53589391708374,3.7734999656677246 -6.53589391708374,3.7734999656677246 C-6.53589391708374,3.7734999656677246 -3.7730000019073486,3.813156404806938e-15 -3.7730000019073486,3.813156404806938e-15 C-3.7730000019073486,3.813156404806938e-15 -6.53589391708374,-3.7734999656677246 -6.53589391708374,-3.7734999656677246 C-6.53589391708374,-3.7734999656677246 -1.8865000009536743,-3.2675137519836426 -1.8865000009536743,-3.2675137519836426 C-1.8865000009536743,-3.2675137519836426 4.621204766542977e-16,-7.546999931335449 4.621204766542977e-16,-7.546999931335449z"></path></g></g><g style="display: block;" transform="matrix(-0.9543692469596863,2.4228076934814453,-2.4228076934814453,-0.9543692469596863,124.88275909423828,965.8627319335938)" opacity="1"><g opacity="1" transform="matrix(1.090000033378601,0,0,1.090000033378601,0,0)"><path fill="rgb(255,255,255)" fill-opacity="1" d=" M-209.5,-105.25 C-210.25,-105.375 -210.31300354003906,-103.81199645996094 -210.68800354003906,-103.81199645996094 C-211.06300354003906,-103.81199645996094 -211.68699645996094,-103.18699645996094 -211.375,-102.81199645996094 C-211.06300354003906,-102.43699645996094 -210.25,-102 -209.81199645996094,-102.375 C-209.37399291992188,-102.75 -208.81199645996094,-102.3759994506836 -208.5,-102.93800354003906 C-208.18800354003906,-103.5 -208.75,-103.81300354003906 -208.68800354003906,-104.375 C-208.62600708007812,-104.93699645996094 -208.75,-105.125 -209.5,-105.25z"></path></g></g><g style="display: block;" transform="matrix(2.3788726329803467,-1.0591423511505127,1.0591423511505127,2.3788726329803467,852.7993774414062,475.9195861816406)" opacity="1"><g opacity="1" transform="matrix(1.090000033378601,0,0,1.090000033378601,0,0)"><path fill="rgb(255,255,255)" fill-opacity="1" d=" M-209.5919952392578,-104.57599639892578 C-210.3419952392578,-104.70099639892578 -210.81500244140625,-104.45600128173828 -211.0570068359375,-104.16899871826172 C-211.70799255371094,-103.39700317382812 -211.68699645996094,-103.18699645996094 -211.375,-102.81199645996094 C-211.06300354003906,-102.43699645996094 -210.78399658203125,-102.06600189208984 -210.38099670410156,-102.2300033569336 C-209.97799682617188,-102.39399719238281 -209.2220001220703,-102.177001953125 -208.91000366210938,-102.73899841308594 C-208.59800720214844,-103.3010025024414 -208.89500427246094,-103.36399841308594 -208.83299255371094,-103.9260025024414 C-208.8159942626953,-104.24299621582031 -208.8419952392578,-104.45099639892578 -209.5919952392578,-104.57599639892578z"></path></g></g><g style="display: block;" transform="matrix(0.6000000238418579,0,0,0.6000000238418579,279.2455749511719,558.3368530273438)" opacity="1"><g opacity="1" transform="matrix(1,0,0,1,159.09300231933594,-46.43199920654297)"><path fill="rgb(255,255,255)" fill-opacity="1" d=" M0,-4.550000190734863 C2.5111451148986816,-4.550000190734863 4.550000190734863,-2.5111451148986816 4.550000190734863,0 C4.550000190734863,2.5111451148986816 2.5111451148986816,4.550000190734863 0,4.550000190734863 C-2.5111451148986816,4.550000190734863 -4.550000190734863,2.5111451148986816 -4.550000190734863,0 C-4.550000190734863,-2.5111451148986816 -2.5111451148986816,-4.550000190734863 0,-4.550000190734863z"></path></g></g><g style="display: block;" transform="matrix(0.39145830273628235,0.4547092020511627,-0.4547092020511627,0.39145830273628235,382.4206237792969,640.0062255859375)" opacity="1"><g opacity="1" transform="matrix(1,0,0,1,-209.75,-80.25)"><path fill="rgb(112,255,129)" fill-opacity="1" d=" M4.621204766542977e-16,-7.546999931335449 C4.621204766542977e-16,-7.546999931335449 2.2177138328552246,-3.0524210929870605 2.2177138328552246,-3.0524210929870605 C2.2177138328552246,-3.0524210929870605 7.177623748779297,-2.332151174545288 7.177623748779297,-2.332151174545288 C7.177623748779297,-2.332151174545288 3.588336229324341,1.1659210920333862 3.588336229324341,1.1659210920333862 C3.588336229324341,1.1659210920333862 4.4360151290893555,6.105651378631592 4.4360151290893555,6.105651378631592 C4.4360151290893555,6.105651378631592 2.310296127921497e-16,3.7730000019073486 2.310296127921497e-16,3.7730000019073486 C2.310296127921497e-16,3.7730000019073486 -4.4360151290893555,6.105651378631592 -4.4360151290893555,6.105651378631592 C-4.4360151290893555,6.105651378631592 -3.588336229324341,1.1659210920333862 -3.588336229324341,1.1659210920333862 C-3.588336229324341,1.1659210920333862 -7.177623748779297,-2.332151174545288 -7.177623748779297,-2.332151174545288 C-7.177623748779297,-2.332151174545288 -2.2177138328552246,-3.0524210929870605 -2.2177138328552246,-3.0524210929870605 C-2.2177138328552246,-3.0524210929870605 4.621204766542977e-16,-7.546999931335449 4.621204766542977e-16,-7.546999931335449z"></path></g></g><g style="display: block;" transform="matrix(0.43800002336502075,0,0,0.43800002336502075,-77.207275390625,548.7456665039062)" opacity="1"><g opacity="1" transform="matrix(1,0,0,1,226.0279998779297,-88.72200012207031)"><path fill="rgb(112,255,129)" fill-opacity="1" d=" M0,-9.050000190734863 C4.99469518661499,-9.050000190734863 9.050000190734863,-4.99469518661499 9.050000190734863,0 C9.050000190734863,4.99469518661499 4.99469518661499,9.050000190734863 0,9.050000190734863 C-4.99469518661499,9.050000190734863 -9.050000190734863,4.99469518661499 -9.050000190734863,0 C-9.050000190734863,-4.99469518661499 -4.99469518661499,-9.050000190734863 0,-9.050000190734863z"></path></g></g><g style="display: block;" transform="matrix(-0.19467489421367645,0.5675400495529175,-0.5675400495529175,-0.19467489421367645,-27.899677276611328,614.3812255859375)" opacity="1"><g opacity="1" transform="matrix(1.4800000190734863,0,0,1.4800000190734863,-209.75,-80.25)"><path fill="rgb(112,255,129)" fill-opacity="1" d=" M4.621204766542977e-16,-7.546999931335449 C4.621204766542977e-16,-7.546999931335449 1.8865000009536743,-3.2675137519836426 1.8865000009536743,-3.2675137519836426 C1.8865000009536743,-3.2675137519836426 6.53589391708374,-3.7734999656677246 6.53589391708374,-3.7734999656677246 C6.53589391708374,-3.7734999656677246 3.7730000019073486,-8.377742948056596e-16 3.7730000019073486,-8.377742948056596e-16 C3.7730000019073486,-8.377742948056596e-16 6.53589391708374,3.7734999656677246 6.53589391708374,3.7734999656677246 C6.53589391708374,3.7734999656677246 1.8865000009536743,3.2675137519836426 1.8865000009536743,3.2675137519836426 C1.8865000009536743,3.2675137519836426 3.813661659959975e-15,7.546999931335449 3.813661659959975e-15,7.546999931335449 C3.813661659959975e-15,7.546999931335449 -1.8865000009536743,3.2675137519836426 -1.8865000009536743,3.2675137519836426 C-1.8865000009536743,3.2675137519836426 -6.53589391708374,3.7734999656677246 -6.53589391708374,3.7734999656677246 C-6.53589391708374,3.7734999656677246 -3.7730000019073486,3.813156404806938e-15 -3.7730000019073486,3.813156404806938e-15 C-3.7730000019073486,3.813156404806938e-15 -6.53589391708374,-3.7734999656677246 -6.53589391708374,-3.7734999656677246 C-6.53589391708374,-3.7734999656677246 -1.8865000009536743,-3.2675137519836426 -1.8865000009536743,-3.2675137519836426 C-1.8865000009536743,-3.2675137519836426 4.621204766542977e-16,-7.546999931335449 4.621204766542977e-16,-7.546999931335449z"></path></g></g><g style="display: block;" transform="matrix(-0.5400797128677368,-0.6973076462745667,0.6973076462745667,-0.5400797128677368,145.39035034179688,608.982421875)" opacity="1"><g opacity="1" transform="matrix(1,0,0,1,0,0)"><path fill="rgb(255,255,255)" fill-opacity="1" d=" M102.25,-14.5 C101.25,-15 99.5,-11.75 98.5,-10.5 C97.5,-9.25 96,-3.25 96,0.25 C96,3.75 99.25,3.25 101.5,3.5 C103.75,3.75 104.5,8.5 103.75,11 C103,13.5 107.75,10.75 110,7 C110.9280014038086,5.453999996185303 108.5,3.5 108.75,-3 C108.81999969482422,-4.818999767303467 108.25,-6.25 106,-5.25 C103.75,-4.25 102,-1 102.5,-3.25 C103,-5.5 107,-7 106.25,-9.5 C105.5,-12 103.25,-14 102.25,-14.5z"></path></g></g><g style="display: block;" transform="matrix(-0.5917488932609558,-0.09916283935308456,0.09916283935308456,-0.5917488932609558,604.4058837890625,477.4835510253906)" opacity="1"><g opacity="1" transform="matrix(1,0,0,1,0,0)"><path fill="rgb(255,255,255)" fill-opacity="1" d=" M132,-114 C129.75,-116.25 126,-110.5 124,-107.75 C122,-105 123,-103 120,-95.5 C117,-88 119.25,-86 123,-86.25 C126.75,-86.5 132.25,-92.5 132.5,-96.75 C132.75,-101 134.25,-111.75 132,-114z"></path></g></g><g style="display: block;" transform="matrix(0.45924538373947144,-0.7530058026313782,0.7530058026313782,0.45924538373947144,470.9101867675781,606.4201049804688)" opacity="1"><g opacity="1" transform="matrix(1,0,0,1,0,0)"><path fill="rgb(112,255,129)" fill-opacity="1" d=" M102.25,-14.5 C101.25,-15 99.5,-11.75 98.5,-10.5 C97.5,-9.25 96,-3.25 96,0.25 C96,3.75 99.25,3.25 101.5,3.5 C103.75,3.75 104.5,8.5 103.75,11 C103,13.5 107.75,10.75 110,7 C110.9280014038086,5.453999996185303 108.5,3.5 108.75,-3 C108.81999969482422,-4.818999767303467 108.25,-6.25 106,-5.25 C103.75,-4.25 102,-1 102.5,-3.25 C103,-5.5 107,-7 106.25,-9.5 C105.5,-12 103.25,-14 102.25,-14.5z"></path></g></g><g style="display: block;" transform="matrix(-0.06271708011627197,-0.5967131853103638,0.5967131853103638,-0.06271708011627197,524.4150390625,345.96929931640625)" opacity="1"><g opacity="1" transform="matrix(1,0,0,1,-209.75,-80.25)"><path fill="rgb(255,255,255)" fill-opacity="1" d=" M4.621204766542977e-16,-7.546999931335449 C4.621204766542977e-16,-7.546999931335449 2.2177138328552246,-3.0524210929870605 2.2177138328552246,-3.0524210929870605 C2.2177138328552246,-3.0524210929870605 7.177623748779297,-2.332151174545288 7.177623748779297,-2.332151174545288 C7.177623748779297,-2.332151174545288 3.588336229324341,1.1659210920333862 3.588336229324341,1.1659210920333862 C3.588336229324341,1.1659210920333862 4.4360151290893555,6.105651378631592 4.4360151290893555,6.105651378631592 C4.4360151290893555,6.105651378631592 2.310296127921497e-16,3.7730000019073486 2.310296127921497e-16,3.7730000019073486 C2.310296127921497e-16,3.7730000019073486 -4.4360151290893555,6.105651378631592 -4.4360151290893555,6.105651378631592 C-4.4360151290893555,6.105651378631592 -3.588336229324341,1.1659210920333862 -3.588336229324341,1.1659210920333862 C-3.588336229324341,1.1659210920333862 -7.177623748779297,-2.332151174545288 -7.177623748779297,-2.332151174545288 C-7.177623748779297,-2.332151174545288 -2.2177138328552246,-3.0524210929870605 -2.2177138328552246,-3.0524210929870605 C-2.2177138328552246,-3.0524210929870605 4.621204766542977e-16,-7.546999931335449 4.621204766542977e-16,-7.546999931335449z"></path></g></g><g style="display: block;" transform="matrix(0.6000000238418579,0,0,0.6000000238418579,13.748871803283691,490.95587158203125)" opacity="1"><g opacity="1" transform="matrix(1,0,0,1,159.09300231933594,-46.43199920654297)"><path fill="rgb(255,255,255)" fill-opacity="1" d=" M0,-4.550000190734863 C2.5111451148986816,-4.550000190734863 4.550000190734863,-2.5111451148986816 4.550000190734863,0 C4.550000190734863,2.5111451148986816 2.5111451148986816,4.550000190734863 0,4.550000190734863 C-2.5111451148986816,4.550000190734863 -4.550000190734863,2.5111451148986816 -4.550000190734863,0 C-4.550000190734863,-2.5111451148986816 -2.5111451148986816,-4.550000190734863 0,-4.550000190734863z"></path></g></g><g style="display: block;" transform="matrix(0,-0.6000000238418579,0.6000000238418579,0,544.1786499023438,320.3121643066406)" opacity="1"><g opacity="1" transform="matrix(1,0,0,1,-209.75,-80.25)"><path fill="rgb(255,255,255)" fill-opacity="1" d=" M4.621204766542977e-16,-7.546999931335449 C4.621204766542977e-16,-7.546999931335449 2.2177138328552246,-3.0524210929870605 2.2177138328552246,-3.0524210929870605 C2.2177138328552246,-3.0524210929870605 7.177623748779297,-2.332151174545288 7.177623748779297,-2.332151174545288 C7.177623748779297,-2.332151174545288 3.588336229324341,1.1659210920333862 3.588336229324341,1.1659210920333862 C3.588336229324341,1.1659210920333862 4.4360151290893555,6.105651378631592 4.4360151290893555,6.105651378631592 C4.4360151290893555,6.105651378631592 2.310296127921497e-16,3.7730000019073486 2.310296127921497e-16,3.7730000019073486 C2.310296127921497e-16,3.7730000019073486 -4.4360151290893555,6.105651378631592 -4.4360151290893555,6.105651378631592 C-4.4360151290893555,6.105651378631592 -3.588336229324341,1.1659210920333862 -3.588336229324341,1.1659210920333862 C-3.588336229324341,1.1659210920333862 -7.177623748779297,-2.332151174545288 -7.177623748779297,-2.332151174545288 C-7.177623748779297,-2.332151174545288 -2.2177138328552246,-3.0524210929870605 -2.2177138328552246,-3.0524210929870605 C-2.2177138328552246,-3.0524210929870605 4.621204766542977e-16,-7.546999931335449 4.621204766542977e-16,-7.546999931335449z"></path></g></g><g style="display: none;" transform="matrix(0.9054142832756042,0,0,0.9054142832756042,382.1097106933594,179.89967346191406)" opacity="0.04891428571465695"><g opacity="1" transform="matrix(1,0,0,1,-29.5,37.5)"><path fill="rgb(255,255,255)" fill-opacity="1" d=" M0,-23.106000900268555 C-12.76099967956543,-23.106000900268555 -23.106000900268555,-12.76099967956543 -23.106000900268555,0 C-23.106000900268555,12.76099967956543 -12.76099967956543,23.106000900268555 0,23.106000900268555 C12.76099967956543,23.106000900268555 23.106000900268555,12.76099967956543 23.106000900268555,0 C23.106000900268555,-12.76099967956543 12.76099967956543,-23.106000900268555 0,-23.106000900268555z"></path></g></g><g style="display: none;" transform="matrix(1.1028311252593994,0,0,1.1028311252593994,387.9335021972656,172.59524536132812)" opacity="0.00682500000021463"><g opacity="1" transform="matrix(1,0,0,1,-29.5,37.5)"><path stroke-linecap="butt" stroke-linejoin="miter" fill-opacity="0" stroke-miterlimit="4" stroke="rgb(255,255,255)" stroke-opacity="1" stroke-width="4" d=" M0,-23.106000900268555 C-12.76099967956543,-23.106000900268555 -23.106000900268555,-12.76099967956543 -23.106000900268555,0 C-23.106000900268555,12.76099967956543 -12.76099967956543,23.106000900268555 0,23.106000900268555 C12.76099967956543,23.106000900268555 23.106000900268555,12.76099967956543 23.106000900268555,0 C23.106000900268555,-12.76099967956543 12.76099967956543,-23.106000900268555 0,-23.106000900268555z"></path></g></g></g></svg>